<!--?xml version="1.0" standalone="no"?-->
              <svg id="sw-js-blob-svg" viewBox="0 0 100 100" xmlns="http://www.w3.org/2000/svg" version="1.1">
                    <defs> 
                        <linearGradient id="sw-gradient" x1="0" x2="1" y1="1" y2="0">
                            <stop id="stop1" stop-color="rgba(248, 117, 55, 1)" offset="0%"></stop>
                            <stop id="stop2" stop-color="rgba(251, 168, 31, 1)" offset="100%"></stop>
                        </linearGradient>
                    </defs>
                <path fill="url(#sw-gradient)" d="M27,-31.9C34.9,-25.5,41.3,-16.9,41.2,-8.6C41.1,-0.2,34.5,8,29.1,16.2C23.6,24.3,19.2,32.5,12.5,35.5C5.7,38.5,-3.4,36.4,-10.1,32.1C-16.9,27.8,-21.4,21.3,-27.5,14.2C-33.6,7.1,-41.3,-0.8,-40.3,-7.2C-39.2,-13.5,-29.4,-18.4,-21.2,-24.8C-13,-31.3,-6.5,-39.3,1.5,-41C9.5,-42.8,19,-38.4,27,-31.9Z" width="100%" height="100%" transform="translate(50 50)" stroke-width="0" style="transition: all 0.3s ease 0s;"></path>
              </svg>