<?xml version="1.0" encoding="utf-8"?>
<!-- Generator: Adobe Illustrator 24.0.3, SVG Export Plug-In . SVG Version: 6.00 Build 0)  -->
<svg version="1.1" id="Layer_1" xmlns="http://www.w3.org/2000/svg" xmlns:xlink="http://www.w3.org/1999/xlink" x="0px" y="0px"
	 viewBox="0 0 2352 1466.2" style="enable-background:new 0 0 2352 1466.2;" xml:space="preserve">
<style type="text/css">
	.st0{fill:#C6CEE9;}
	.st1{fill:#91A2CA;}
	.st2{fill:#E9EDF7;}
	.st3{fill:none;stroke:#FFFFFF;stroke-miterlimit:10;}
	.st4{fill:url(#SVGID_1_);}
	.st5{fill:#999999;}
	.st6{fill:#FFFFFF;}
	.st7{fill:#6652FF;}
	.st8{fill:#CCCCCC;}
	.st9{fill:#333A7E;}
	.st10{fill:#D8E2FB;}
	.st11{fill:#F36C42;}
	.st12{fill:#7FB4DE;}
	.st13{fill:#DBEDF1;}
	.st14{fill:#F75D77;}
	.st15{fill:#FEC465;}
	.st16{fill:#375378;}
	.st17{fill:#B3B3B3;}
	.st18{fill:#F16178;}
	.st19{fill:#D3E1FB;}
	.st20{fill:#C1E1FF;}
	.st21{fill:#F15A24;}
	.st22{fill:url(#SVGID_2_);}
	.st23{fill:url(#SVGID_3_);}
	.st24{fill:#253336;}
	.st25{fill:url(#SVGID_4_);}
	.st26{fill:url(#SVGID_5_);}
	.st27{fill:#F68A53;}
	.st28{fill:url(#SVGID_6_);}
	.st29{fill:#7991B4;}
	.st30{fill:url(#SVGID_7_);}
	.st31{fill:url(#SVGID_8_);}
	.st32{fill:url(#SVGID_9_);}
	.st33{fill:url(#SVGID_10_);}
	.st34{fill:#E6E6E6;}
	.st35{fill:url(#SVGID_11_);}
	.st36{fill:url(#SVGID_12_);}
	.st37{fill:url(#SVGID_13_);}
	.st38{fill:url(#SVGID_14_);}
	.st39{fill:url(#SVGID_15_);}
	.st40{fill:#E62552;}
</style>
<g>
	<g>
		<path class="st0" d="M252.9,1227c-23.9-25.5-44.4-51.4-61.8-76.2c15.3-22.7,15-43.8,15-43.8c-4.9,10.3-21.2,14.1-34,15.4
			c-42.1-66.2-60.4-117.9-60.4-117.9s63.9-21.4,147-26.8c7,16.7,15.3,41.3,10.8,56.5c0,0,22.9-26.8,36.5-57.6
			c24.7,0.5,50.2,2.8,75.7,7.6c-4.6,21.3-14.2,55-30.5,63.2c0,0,59.2-9,100.3-42.4c32.1,13.6,62.5,33.1,89,60.1
			c-17.2,19.8-43.9,46.3-64.5,48.5c0,0,32.4,13.8,89.7-18.8c14.6,20.1,27.5,43.4,38,70.3l-3.5,92.9c0,0-4,2.6-11.2,6.8
			c-3.1-0.9-6.2-1.9-9.6-3.1c-4.5-1.4-9.3-3.3-14.3-5.3c-5-1.9-10.2-4.1-15.6-6.4c-5.4-2.2-11-4.8-16.8-7.5
			c-5.8-2.6-11.7-5.4-17.7-8.4c-12.1-5.9-24.8-12.4-37.8-19.2c-6.5-3.5-13.1-7-19.7-10.6c-6.6-3.7-13.4-7.4-20.1-11.1
			c-13.5-7.5-27.1-15.3-40.7-23.3c-13.6-7.9-27.2-15.8-40.4-23.8c-13.3-8-26.3-15.8-39-23.4c-25.2-15.4-48.7-29.8-68.8-42.2
			c-40.2-24.8-67.1-41.4-67.1-41.4s6.2,4.9,17.2,13.3c11,8.3,26.9,20.1,46.2,33.7c9.7,6.8,20.2,14.2,31.4,21.7
			c11.3,7.6,23.1,15.6,35.6,23.6c12.4,8,25.3,16.3,38.6,24.4c13.2,8.1,26.8,16.2,40.4,24.2c13.7,7.9,27.5,15.6,41.1,23.1
			c13.7,7.5,27.4,14.4,40.6,21c13.3,6.6,26.3,12.6,38.8,18c12.5,5.4,24.5,10.2,35.7,14.1c5.6,2,11,3.9,16.2,5.4
			c5.2,1.6,10.1,3.1,14.8,4.2c2.1,0.6,4.1,1.1,6.1,1.5c-28.5,15.8-91.5,45.7-160.1,46c13.1-48.2-2.6-69.2-2.6-69.2
			c-2.2,25.3-21.6,52.2-33.4,66.4c-33.5-5.4-67.1-19.5-97.6-47c-4.8-4.4-9.5-8.8-14.2-13.3c13.3-27.3,11.4-55.3,11.4-55.3
			C288.2,1204.4,266.3,1219,252.9,1227z"/>
		<path class="st1" d="M520.2,1246.9c-1.6-2.5-3.6-6.4-6.2-11.2c-5.3-9.7-12.8-23.5-21.9-40.1c-4.6-8.3-9.5-17.3-14.8-26.7
			c-5.3-9.4-10.8-19.4-16.8-29.6c-6-10.2-11.9-20.9-18.2-31.5c-6.3-10.7-12.7-21.5-19.1-32.4c-6.5-10.8-13.1-21.6-19.5-32.2
			c-6.4-10.6-13-20.9-19.2-31c-6.2-10.1-12.4-19.7-18.2-28.8c-5.8-9.1-11.4-17.7-16.7-25.6c-20.8-31.6-35.7-52.1-35.7-52.1
			c0,0,10.7,23,28.5,56.4c4.4,8.4,9.2,17.4,14.5,26.9c5.2,9.5,10.7,19.6,16.5,29.8c5.9,10.2,11.8,21,18.1,31.6
			c6.3,10.7,12.7,21.6,19.1,32.4c6.6,10.8,13.1,21.6,19.5,32.2c6.4,10.6,13,20.9,19.3,30.9c6.3,10,12.5,19.6,18.5,28.7
			c5.9,9.1,11.6,17.6,17,25.4c10.7,15.7,19.9,28.5,26.6,37.3c3.3,4.4,6,7.8,8.1,10.1c1.9,2.2,3,3.4,3,3.4s-260.8-76-285.1-491
			c0,0,250.4,114.5,285.1,491C522.5,1250.8,521.7,1249.5,520.2,1246.9z"/>
	</g>
	<g>
		<path class="st1" d="M1012.1,688c0,0-3-651.9,102.7-587.3c105.6,64.6,27,552.2-37.8,611.5"/>
		<path class="st0" d="M995.5,708.7c0,0,27.6-260.6-97.6-271c-125.2-10.5,12.4,233.7,39.6,259.8"/>
		<path class="st0" d="M920.5,333.4c0,0-52.9,93.8,39.7,93.3c92.6-0.5,67.3-8.9,67.3-8.9"/>
		<path class="st2" d="M1022.6,711.7c0,0,45.6-388.9,6.3-412.7c-39.3-23.8-117.1-4.3-108.4,34.4c8.7,38.7,52.7,371,52.7,371"/>
		<path class="st1" d="M1357.8,340.3c0,0,5.6,126.2-58.1,155.6c-63.7,29.3-91.7-52.6-91.7-52.6l16.7-133.5"/>
		<path class="st0" d="M1047.4,708.7c0,0,130.3-503.1,233.7-450.5c103.3,52.6,71.5,108.9,71.5,108.9s-22-29.8-43.7-1.6
			c-21.7,28.2-171.6,369.9-171.6,369.9"/>
		<path class="st1" d="M1096.5,719.3c0,0,94-244.6,210.2-197c116.2,47.6-117.3,202.5-153.5,213.3"/>
		<path class="st3" d="M1106.4,131.5c0,0-8.4,353-67.6,550.1"/>
		<path class="st3" d="M983.3,311.5c0,0,24.2,280.5,13.1,373.4"/>
		<path class="st3" d="M889.6,471.8c0,0,63.3,151.4,65.4,212"/>
		<path class="st3" d="M1278.6,294.8c0,0-145,256.9-198.7,401.7"/>
		<g>
			<path class="st2" d="M1120.3,721.2l-1.9-1.6c68.4-80.7,158.1-160.8,159-161.6l1.7,1.9C1278.1,560.7,1188.6,640.7,1120.3,721.2z"
				/>
		</g>
	</g>
	<linearGradient id="SVGID_1_" gradientUnits="userSpaceOnUse" x1="796.1617" y1="966.977" x2="2113.0217" y2="966.977">
		<stop  offset="0" style="stop-color:#FFFFFF"/>
		<stop  offset="1" style="stop-color:#97CCEF"/>
	</linearGradient>
	<path class="st4" d="M1922.2,1331.5h-1073c0,0-153.1-251.9,60.8-338.5c213.9-86.5,272.3-63.6,267.4-201
		c-4.9-137.4,102.1-221.4,189.6-178.1c87.5,43.3,162.9,152.7,299,86.5c136.1-66.2,312.7,16.9,325.9,227.8
		c5.5,87.6,30.4,123.3,86.3,156.4C2134.1,1117.6,2148,1331.5,1922.2,1331.5z"/>
	<g>
		<path class="st1" d="M1928,1193.7c4,22.9-11.3,44.8-34.2,48.8l-381.3,67c-22.9,4-44.8-11.3-48.8-34.2l-138.1-786
			c-4-22.9,11.3-44.8,34.2-48.8l381.3-67c22.9-4,44.8,11.3,48.8,34.2L1928,1193.7z"/>
		<g>
			<path class="st5" d="M1489.6,517.7l-30.5,43.6l-30.5,43.6c-9.4,13.4-6.1,31.8,7.2,41.2c13.4,9.4,31.8,6.1,41.2-7.2l30.5-43.5
				l30.5-43.6c9.4-13.4,6.1-31.8-7.2-41.2C1517.4,501.1,1499,504.3,1489.6,517.7z"/>
			<path class="st5" d="M1673.1,610.5l30.5-43.6l30.5-43.6c9.4-13.4,6.1-31.8-7.2-41.2c-13.4-9.4-31.8-6.1-41.2,7.2l-30.5,43.6
				l-30.5,43.6c-9.4,13.4-6.1,31.8,7.2,41.2C1645.3,627.1,1663.7,623.9,1673.1,610.5z"/>
			<path class="st5" d="M1522.1,702.3l-30.5,43.6l-30.5,43.6c-9.4,13.4-6.1,31.8,7.2,41.2c13.4,9.4,31.8,6.1,41.2-7.2l30.5-43.6
				l30.5-43.6c9.4-13.4,6.1-31.8-7.2-41.2C1549.9,685.7,1531.4,688.9,1522.1,702.3z"/>
			<path class="st5" d="M1718.2,674l-30.5,43.6l-30.5,43.6c-9.4,13.4-6.1,31.8,7.2,41.2c13.4,9.4,31.8,6.1,41.2-7.2l30.5-43.6
				l30.5-43.6c9.4-13.4,6.1-31.8-7.2-41.2C1746,657.4,1727.5,660.7,1718.2,674z"/>
			<path class="st5" d="M1554.5,886.8l-30.5,43.6l-30.5,43.6c-9.4,13.4-6.1,31.8,7.2,41.2c13.4,9.4,31.8,6.1,41.2-7.2l30.5-43.6
				l30.5-43.6c9.4-13.4,6.1-31.8-7.2-41.2C1582.3,870.2,1563.8,873.5,1554.5,886.8z"/>
			<path class="st5" d="M1750.6,858.6l-30.5,43.5l-30.5,43.6c-9.4,13.4-6.1,31.8,7.2,41.2c13.4,9.4,31.8,6.1,41.2-7.2l30.5-43.6
				l30.5-43.6c9.4-13.4,6.1-31.8-7.2-41.2C1778.4,842,1760,845.2,1750.6,858.6z"/>
			<path class="st5" d="M1586.9,1071.4l-30.5,43.6l-30.5,43.6c-9.4,13.4-6.1,31.8,7.2,41.2c13.4,9.4,31.8,6.1,41.2-7.2l30.5-43.6
				l30.5-43.6c9.4-13.4,6.1-31.8-7.2-41.2C1614.7,1054.8,1596.3,1058.1,1586.9,1071.4z"/>
			<path class="st5" d="M1783,1043.2l-30.5,43.6l-30.5,43.6c-9.4,13.4-6.1,31.8,7.2,41.2c13.4,9.4,31.8,6.1,41.2-7.2l30.5-43.6
				l30.5-43.5c9.4-13.4,6.1-31.8-7.2-41.2C1810.8,1026.6,1792.4,1029.8,1783,1043.2z"/>
		</g>
		<g>
			<g>
				<g>
					<path class="st6" d="M1422.8,590.9c-9.4,13.4-6.1,31.8,7.2,41.2c13.4,9.4,31.8,6.1,41.2-7.2l30.5-43.6l-48.4-33.9L1422.8,590.9
						z"/>
					<path class="st0" d="M1483.9,503.8l-30.5,43.6l48.4,33.9l30.5-43.6c9.4-13.4,6.1-31.8-7.2-41.2
						C1511.7,487.2,1493.2,490.4,1483.9,503.8z"/>
				</g>
				<g>
					<path class="st6" d="M1618.9,562.6c-9.4,13.4-6.1,31.8,7.2,41.2c13.4,9.4,31.8,6.1,41.2-7.2l30.5-43.6l-48.4-33.9L1618.9,562.6
						z"/>
					<path class="st0" d="M1680,475.5l-30.5,43.6l48.4,33.9l30.5-43.6c9.4-13.4,6.1-31.8-7.2-41.2
						C1707.8,458.9,1689.3,462.2,1680,475.5z"/>
				</g>
			</g>
			<g>
				<g>
					<path class="st6" d="M1455.2,775.5c-9.4,13.4-6.1,31.8,7.2,41.2c13.4,9.4,31.8,6.1,41.2-7.2l30.5-43.6l-48.4-33.9L1455.2,775.5
						z"/>
					<path class="st0" d="M1516.3,688.4l-30.5,43.6l48.4,33.9l30.5-43.6c9.4-13.4,6.1-31.8-7.2-41.2
						C1544.1,671.8,1525.7,675,1516.3,688.4z"/>
				</g>
				<g>
					<path class="st6" d="M1651.3,747.2c-9.4,13.4-6.1,31.8,7.2,41.2c13.4,9.4,31.8,6.1,41.2-7.2l30.5-43.6l-48.4-33.9L1651.3,747.2
						z"/>
					<path class="st0" d="M1712.4,660.1l-30.5,43.6l48.4,33.9l30.5-43.6c9.4-13.4,6.1-31.8-7.2-41.2
						C1740.2,643.5,1721.8,646.7,1712.4,660.1z"/>
				</g>
			</g>
			<g>
				<g>
					<path class="st6" d="M1487.6,960c-9.4,13.4-6.1,31.8,7.2,41.2c13.4,9.4,31.8,6.1,41.2-7.2l30.5-43.5l-48.4-33.9L1487.6,960z"/>
					<path class="st0" d="M1548.7,872.9l-30.5,43.6l48.4,33.9l30.5-43.6c9.4-13.4,6.1-31.8-7.2-41.2
						C1576.5,856.3,1558.1,859.6,1548.7,872.9z"/>
				</g>
				<g>
					<path class="st6" d="M1683.7,931.8c-9.4,13.4-6.1,31.8,7.2,41.2c13.4,9.4,31.8,6.1,41.2-7.2l30.5-43.6l-48.4-33.9L1683.7,931.8
						z"/>
					<path class="st0" d="M1744.8,844.7l-30.5,43.5l48.4,33.9l30.5-43.5c9.4-13.4,6.1-31.8-7.2-41.2
						C1772.6,828.1,1754.2,831.3,1744.8,844.7z"/>
				</g>
			</g>
			<g>
				<g>
					<path class="st6" d="M1520.1,1144.6c-9.4,13.4-6.1,31.8,7.2,41.2c13.4,9.4,31.8,6.1,41.2-7.2l30.5-43.5l-48.4-33.9
						L1520.1,1144.6z"/>
					<path class="st0" d="M1581.2,1057.5l-30.5,43.6l48.4,33.9l30.5-43.6c9.4-13.4,6.1-31.8-7.2-41.2
						C1608.9,1040.9,1590.5,1044.2,1581.2,1057.5z"/>
				</g>
				<g>
					<path class="st6" d="M1716.2,1116.4c-9.4,13.4-6.1,31.8,7.2,41.2c13.4,9.4,31.8,6.1,41.2-7.2l30.5-43.6l-48.4-33.9
						L1716.2,1116.4z"/>
					<path class="st0" d="M1777.3,1029.3l-30.5,43.6l48.4,33.9l30.5-43.5c9.4-13.4,6.1-31.8-7.2-41.2
						C1805.1,1012.7,1786.6,1015.9,1777.3,1029.3z"/>
				</g>
			</g>
		</g>
	</g>
	<path class="st2" d="M760.1,550.7c-1.5-5.5-2.9-10.6-4.3-15.5c-1.3-4.9-2.9-9.3-4.1-13.5c-1.3-4.2-2.4-8-3.7-11.4
		c-1.5-4.5-2.8-8.3-4-11.5c-10.6-4.9-88-44.2-72.3-145.3c0,0,107.3,31,73.9,144.7c1.6,2.9,3.5,6.5,5.6,10.7c3.3,6.5,7,14.6,11,24
		c1.9,4.7,4,9.8,6.1,15c2.3,5.3,3.5,11.2,5.4,17.2c1.3,4.7,2.8,9.6,4.2,14.6c1.7-5.3,3.9-12.2,6.1-19.2c1.1-3.5,2.2-7,3.3-10.3
		c0.4-1.2,0.8-2.4,1.2-3.5c-54.9-112.6,24-159.6,24-159.6c42.3,124.3-3.8,152.9-19.1,158.8c-0.6,1.8-1.3,3.7-2,5.7
		c-1,3.3-2.2,6.8-3.3,10.2c-2.2,7-4.4,14-6.1,19.2c-0.3,0.6-0.3,1.3-0.6,1.9c-0.3,0.5-0.7,1.1-1,1.6c-0.3,0.5-0.6,0.9-0.9,1.3
		c1.4,6,2.9,12.1,4.5,18.4c0.8,3.5,1.8,7,2.5,10.6c0.7,3.6,1.4,7.3,2.1,11c1.4,7.4,2.8,15,4.3,22.7c1.2,7.8,2.4,15.5,3.5,23.6
		c0.5,3.8,0.9,7.7,1.4,11.5c0.2-1.1,0.3-2.2,0.6-3.3c0.4-2,0.8-4.1,1.2-6.1c0.8-4.1,1.6-8.2,2.4-12.1c1-3.8,1.9-7.4,2.7-10.4
		c0.3-0.7,0.2-1.5,0.6-2.2c0.3-0.7,0.7-1.3,1-1.9c0.3-0.5,0.5-0.9,0.8-1.4c-4.1-19.1-14.5-96.5,68.2-144.6
		c0,0,43.3,102.7-65.8,148.4c0,0.2,0,0.4,0,0.6c0,0.7-0.4,1.4-0.6,2.1c-0.8,3-1.7,6.5-2.6,10.2c-0.7,3.8-1.6,7.8-2.4,11.9
		c-0.4,2-0.8,4-1.2,6c-0.5,2-0.7,4-0.9,5.9c-0.4,3.9-0.8,7.5-1.2,10.5c-0.1,0.7,0,1.5-0.3,2.2c-0.1,0.4-0.3,0.8-0.4,1.2
		c1.7,14.8,3.3,29.7,5.9,44.4c1.2,8.1,3.1,16.1,4.8,24.1c0.9,4,2.1,7.9,3.1,11.8c1.1,3.9,2,7.9,3.4,11.7c0.3,0.9,0.6,1.7,0.9,2.6
		c0.1-0.6,0.1-1.2,0.2-1.9c0.3-2.7,0.9-5.5,1.5-8.4c0.5-2.9,1.5-5.9,2.3-8.9c1-2.9,2-6,3.3-8.9c1.3-2.6,2.4-5.4,4-7.9
		c-0.6,0-1.1,0.1-1.7,0.1c0,0-2.2-96.9,97.3-114.5c0,0,13.6,106.9-90.4,114.1c-0.4,0.6-0.7,1.2-1.1,1.8c-1.7,2.5-2.7,5.4-4.1,8.1
		c-1.2,2.8-2.2,5.7-3.2,8.5c-0.8,2.9-1.7,5.7-2.2,8.5c-0.6,2.8-1.1,5.5-1.5,8.1c-0.4,2.6-0.6,5.1-0.8,7.3c-0.2,1.1,0,2.3-0.2,3.3
		c0,0.2-0.1,0.3-0.1,0.5c1.2,3.4,2.4,6.8,3.9,10.1c1.5,3.7,3,7.3,4.4,10.9c1.6,3.6,3.4,7,5,10.5c1.7,3.5,3.3,6.9,5,10.3
		c1.8,3.3,3.6,6.6,5.4,9.9c3.6,6.5,7,12.9,10.9,18.8c3.8,6,7.4,11.8,11,17.5c0.9,1.3,1.8,2.6,2.7,3.8c-0.2-1.5-0.3-3-0.3-4.5
		c-0.3-6.8,0.7-13.4,2-18.3c0.2-0.6,0.1-1.2,0.5-1.7c0.3-0.5,0.6-1,0.9-1.4c0.4-0.6,0.7-1,1.1-1.5c-2.6-9.9-19.1-83.4,55.8-119.3
		c0,0,38.1,90.4-53.7,119.9c0,0.6,0,1.2,0,2c0,0.5,0,1.1,0,1.6c0,0.5-0.3,1-0.4,1.6c-1.2,4.5-2.1,10.8-1.8,17.1
		c0.1,3.1,0.5,6.2,1.1,9.1c0.2,1.4,0.7,2.8,1,4.1c0.1,0.2,0.1,0.4,0.2,0.5c0.7,1,1.4,2,2.1,3c1.8,2.5,3.5,5,5.3,7.4
		c1.7,2.4,3.6,4.6,5.1,7c3.1,4.7,6.1,9.2,8.9,13.4c5.5,8.5,10.7,15.6,15,21.4c8.5,11.8,13.3,18.7,13.3,18.7s-5.8-6-15.8-16.6
		c-5-5.3-11.1-11.8-17.7-19.5c-2.3-2.6-4.7-5.4-7.2-8.3c-0.3,0-0.6-0.1-1-0.1c-0.5-0.1-1.1-0.1-1.7-0.2c-0.6,0-1.1-0.5-1.7-0.7
		c-1.2-0.4-2.4-1.1-3.9-1.4c-1.4-0.4-2.9-0.7-4.5-1.1c-1.6-0.4-3.2-0.9-4.8-1.2c-1.7-0.2-3.4-0.4-5.1-0.6c-1.7-0.2-3.4-0.5-5.1-0.5
		c-1.7,0-3.4-0.1-4.9-0.1c-1.6-0.1-3.2,0.2-4.6,0.3c-1.5,0.2-2.9,0.2-4.1,0.4c-0.7,0.1-1.2,0.4-1.8,0.3c-0.3,0-0.6-0.1-0.9-0.1
		c-14.5,10-83.3,51.4-160.4-8.3c0,0,78.1-77.9,161,4c0.5-0.1,1-0.1,1.5-0.2c1.3-0.3,2.8-0.3,4.4-0.5c1.6-0.1,3.2-0.4,4.9-0.3
		c1.7,0,3.5,0,5.3,0.1c1.8-0.1,3.6,0.3,5.4,0.5c1.8,0.2,3.6,0.5,5.4,0.7c1.8,0.3,3.4,0.8,5.1,1.2c1.6,0.4,3.2,0.8,4.7,1.2
		c0.7,0.1,1.4,0.4,2,0.7c-3.1-3.8-5.8-8.2-9-12.6c-3.6-5.1-7.3-10.5-11.2-16c-3.6-5.8-7.3-11.7-11.2-17.7c-4-6-7.4-12.6-11.1-19.2
		c-1.8-3.3-3.7-6.7-5.5-10c-0.9-1.8-1.7-3.6-2.6-5.4c-0.3,0-0.5,0-0.7,0c-0.5,0-0.8-0.4-1.2-0.5c-3.2-1.5-7.6-3.6-11.9-5.6
		c-4.3-2-8.6-4.1-11.9-5.6c-0.3-0.2-0.6-0.2-0.8-0.4c-21.4,4.4-96.1,12.8-143.5-67.4c0,0,102.8-44.3,149.1,65.2
		c2.7,1.3,5.8,2.8,8.9,4.2c3.2,1.5,6.4,3,9.2,4.3c-1.6-3.3-3.3-6.7-4.9-10.1c-1.5-3.7-3-7.4-4.6-11.2c-3.3-7.4-5.7-15.3-8.4-23.2
		c-1.4-3.9-2.4-7.9-3.5-12c-1-4-2.3-8-3.2-12.1c-1.3-6.1-2.6-12.2-3.7-18.4c-0.3-0.6-0.6-1.2-0.9-1.8c-1.8-3.5-3.4-7.7-5.9-12
		c-2.4-4.3-4.8-8.9-7.5-13.4c-5.2-9.1-10.9-18-15.2-24.6c-0.5-0.9-1.2-1.5-1.5-2.4c-0.2-0.5-0.4-0.9-0.6-1.3
		c-12-1.4-101.2-15.2-101.3-118.4c0,0,126.2,26.5,103.5,115.3c0.1,0.1,0.1,0.1,0.2,0.2c0.6,0.6,1.2,1.2,1.8,1.9
		c0.6,0.7,0.9,1.6,1.5,2.4c4.3,6.7,10,15.6,15.3,24.8c2.8,4.5,5.2,9.2,7.6,13.6c0.2,0.3,0.3,0.6,0.5,1c-2.1-13.7-3.6-27.3-5.1-40.8
		c-0.9-8.1-1.9-16.1-2.9-24c-1-7.9-2.3-15.8-3.4-23.4c-1.5-7.6-2.9-15.1-4.3-22.4c-0.7-3.7-1.4-7.3-2.1-10.9
		c-0.8-3.6-1.7-7-2.5-10.5c-1.5-6.2-3-12.2-4.4-18c-0.8-1.5-1.6-3-2.7-4.5c-1.2-1.9-2.5-3.8-3.9-5.5c-1.3-1.8-2.8-3.6-4.3-5.2
		c-1.4-1.7-3.1-3.2-4.6-4.7c-3.1-2.9-6.2-5.5-9-7.5c-0.6-0.6-1.4-0.9-2-1.4c-0.6-0.6-1.1-1.1-1.6-1.6c0,0-0.1-0.1-0.1-0.1
		c-18,0.8-77.8-2-87.2-71.5c0,0,80.9-9.3,92.3,70.3c0.4,0.3,0.8,0.6,1.2,0.9c2.9,2.1,6.1,4.8,9.4,7.9c1.6,1.6,3.3,3.2,4.8,5
		c1.4,1.5,2.7,3.2,4,4.8c-0.7-2.5-1.4-4.9-2.1-7.3C763.7,561.7,761.7,556.1,760.1,550.7z"/>
	<g>
		<path class="st1" d="M722.2,926.3c0-60.5,6-100.9-40.4-115.1c-46.4-14.1-48.5-54.5-48.5-54.5h-40.1h-58.8h-40.1
			c0,0-2,40.4-48.4,54.5c-46.5,14.1-40.4,54.5-40.4,115.1c0,60.5,0,331,0,331s-6.1,76,62.6,76c24.3,0,47.1,0,66.3,0
			c0,0,23.7,0,58.8,0c19.3,0,42.1,0,66.4,0c68.6,0,62.6-76,62.6-76S722.2,986.8,722.2,926.3z"/>
		<path class="st7" d="M659.9,635.8c-0.7-10-3.2-18-11.4-26.9c-13.8-14.8-20.5-53.3-20.5-66.7c0-20.8-15.8-20.8-15.8-20.8H602h-0.1
			H596l-5-0.1l-0.2,0.1h-53.9l-0.2-0.1l-5,0.1h-5.9h-0.1h-10.2c0,0-15.8,0-15.8,20.8c0,13.4-6.7,51.9-20.5,66.7
			c-8.3,9-10.7,16.9-11.4,26.9h-0.1v1.8c-0.3,6,0,12.9,0,21.1v110.3h192.4V635.8H659.9z"/>
		<polygon class="st8" points="651,743 651,639.1 646.4,639.1 646.4,743 632.4,743 632.4,639.1 627.7,639.1 627.7,743 613.8,743 
			613.8,639.1 609.1,639.1 609.1,743 595.1,743 595.1,639.1 590.4,639.1 590.4,743 576.5,743 576.5,639.1 571.8,639.1 571.8,743 
			557.8,743 557.8,639.1 553.2,639.1 553.2,743 539.2,743 539.2,639.1 534.5,639.1 534.5,743 520.5,743 520.5,639.1 515.8,639.1 
			515.8,743 501.9,743 501.9,639.1 497.2,639.1 497.2,743 483.3,743 483.3,639.1 478.6,639.1 478.6,743 467.5,743 467.5,753.1 
			660.1,753.1 660.1,743 		"/>
		<path class="st9" d="M674.2,1260.8c0,13.4-10.8,24.2-24.2,24.2H477.7c-13.4,0-24.2-10.8-24.2-24.2V875.9
			c0-13.4,10.9-24.3,24.2-24.3H650c13.4,0,24.2,10.8,24.2,24.3V1260.8z"/>
		<path class="st10" d="M648.3,1113.3c0,4.6-3.7,7.9-8.3,7.9H487.6c-4.6,0-8.2-3.3-8.2-7.9l0,0c0-4.6,3.7-7.9,8.2-7.9h152.5
			C644.6,1105.4,648.3,1108.7,648.3,1113.3L648.3,1113.3z"/>
		<path class="st10" d="M648.3,1159.1c0,4.6-3.7,7.9-8.3,7.9H487.6c-4.6,0-8.2-3.3-8.2-7.9l0,0c0-4.6,3.7-7.9,8.2-7.9h152.5
			C644.6,1151.2,648.3,1154.6,648.3,1159.1L648.3,1159.1z"/>
		<path class="st10" d="M648.3,1205c0,4.6-3.7,7.9-8.3,7.9H487.6c-4.6,0-8.2-3.3-8.2-7.9l0,0c0-4.6,3.7-7.9,8.2-7.9h152.5
			C644.6,1197.1,648.3,1200.4,648.3,1205L648.3,1205z"/>
	</g>
	<g>
		<rect x="1381.6" y="608.2" class="st11" width="166.4" height="131"/>
		<g>
			<g>
				<path class="st7" d="M1548,1307c0,11.9-9.7,21.6-21.6,21.6H719.6c-11.9,0-21.6-9.7-21.6-21.6V722.2c0-11.9,9.7-21.6,21.6-21.6
					h806.8c11.9,0,21.6,9.7,21.6,21.6V1307z"/>
			</g>
		</g>
		<g>
			<g>
				<path class="st12" d="M1383,1307.1c0,11.6-6.2,21.6-15.3,21.6H750.9c-9.1,0-16.9-10-16.9-21.6V740.5c0-11.6,7.8-19.9,16.9-19.9
					h616.8c9.1,0,15.3,8.3,15.3,19.9V1307.1z"/>
			</g>
		</g>
		<rect x="718" y="814.6" class="st7" width="676" height="17"/>
		<rect x="722" y="985.6" class="st7" width="676" height="18"/>
		<path class="st9" d="M1370,1307c0,11.9-9.7,21.6-21.6,21.6H765.6c-11.9,0-21.6-9.7-21.6-21.6v-99.8c0-11.9,9.7-21.6,21.6-21.6
			h582.8c11.9,0,21.6,9.7,21.6,21.6V1307z"/>
		<rect x="766" y="1207.6" class="st13" width="583" height="99"/>
		<g>
			<rect x="1059.4" y="1214.9" class="st12" width="25.9" height="80.7"/>
			<rect x="1032.1" y="1242.3" class="st12" width="80.7" height="25.9"/>
		</g>
		<g>
			<g>
				<path class="st6" d="M1061.8,1123.1c0,4.2-3.4,7.7-7.7,7.7H912c-4.2,0-7.7-3.4-7.7-7.7v-89.2c0-4.2,3.4-7.7,7.7-7.7h142.1
					c4.2,0,7.7,3.4,7.7,7.7V1123.1z"/>
				<path class="st9" d="M1053.2,1123.1c0,4.2-3.4,7.7-7.7,7.7H903.3c-4.2,0-7.7-3.4-7.7-7.7v-89.2c0-4.2,3.4-7.7,7.7-7.7h142.1
					c4.2,0,7.7,3.4,7.7,7.7V1123.1z"/>
				<path class="st6" d="M989.1,1154.3c0,4.2-3.4,7.7-7.7,7.7h-14.5c-4.2,0-7.7-3.4-7.7-7.7v-63.2c0-4.2,3.4-7.7,7.7-7.7h14.5
					c4.2,0,7.7,3.4,7.7,7.7V1154.3z"/>
				<path class="st12" d="M980.2,1154.3c0,4.2-3.4,7.7-7.7,7.7H958c-4.2,0-7.7-3.4-7.7-7.7v-63.2c0-4.2,3.4-7.7,7.7-7.7h14.5
					c4.2,0,7.7,3.4,7.7,7.7V1154.3z"/>
				<rect x="895.7" y="1156.4" class="st9" width="180.1" height="31.2"/>
				<rect x="1037.4" y="1156.4" class="st6" width="38.4" height="31.2"/>
			</g>
		</g>
		<g>
			<path class="st14" d="M847.2,758.6c0,3-2.4,5.4-5.4,5.4H819c-3,0-5.4-2.4-5.4-5.4v-0.1c0-3,2.4-5.4,5.4-5.4h22.8
				c3,0,5.4,2.4,5.4,5.4V758.6z"/>
			<path class="st15" d="M839.1,763.2h-0.8h-16h-0.8c-7,0-12.5,5.7-12.5,12.6v25.3c0,7,5.5,12.6,12.5,12.6h0.8h16h0.8
				c7,0,12.8-5.7,12.8-12.6v-25.3C851.9,768.8,846.1,763.2,839.1,763.2z"/>
			<rect x="816.5" y="779.2" class="st6" width="27.8" height="14.3"/>
		</g>
		<g>
			<path class="st14" d="M913.8,746.2c0,3.7-3,6.6-6.6,6.6h-28c-3.7,0-6.6-3-6.6-6.6V746c0-3.7,3-6.6,6.6-6.6h28
				c3.7,0,6.6,3,6.6,6.6V746.2z"/>
			<path class="st6" d="M903.8,751.8h-1h-19.6h-1c-8.5,0-15.3,6.9-15.3,15.5v31c0,8.5,6.8,15.5,15.3,15.5h1h19.6h1
				c8.5,0,15.7-6.9,15.7-15.5v-31C919.5,758.7,912.4,751.8,903.8,751.8z"/>
			<rect x="876.1" y="771.4" class="st12" width="34.1" height="17.5"/>
		</g>
		<g>
			<path class="st6" d="M1225.6,758.8c0,3-2.4,5.4-5.4,5.4h-22.8c-3,0-5.4-2.4-5.4-5.4v-0.1c0-3,2.4-5.4,5.4-5.4h22.8
				c3,0,5.4,2.4,5.4,5.4V758.8z"/>
			<path class="st14" d="M1217.5,763.3h-0.8h-16h-0.8c-7,0-12.5,5.7-12.5,12.6v25.3c0,7,5.5,12.6,12.5,12.6h0.8h16h0.8
				c7,0,12.8-5.7,12.8-12.6V776C1230.2,769,1224.4,763.3,1217.5,763.3z"/>
			<rect x="1194.9" y="779.3" class="st6" width="27.8" height="14.3"/>
		</g>
		<g>
			<path class="st14" d="M1292.2,746.3c0,3.7-3,6.6-6.6,6.6h-28c-3.7,0-6.6-3-6.6-6.6v-0.1c0-3.7,3-6.6,6.6-6.6h28
				c3.7,0,6.6,3,6.6,6.6V746.3z"/>
			<path class="st6" d="M1282.2,751.9h-1h-19.6h-1c-8.5,0-15.3,6.9-15.3,15.5v31c0,8.5,6.8,15.5,15.3,15.5h1h19.6h1
				c8.5,0,15.7-6.9,15.7-15.5v-31C1297.8,758.9,1290.7,751.9,1282.2,751.9z"/>
			<rect x="1254.5" y="771.5" class="st12" width="34.1" height="17.5"/>
		</g>
		<g>
			<path class="st14" d="M1352.6,918.3c0,3.7-3,6.6-6.6,6.6h-28c-3.7,0-6.6-3-6.6-6.6v-0.1c0-3.7,3-6.6,6.6-6.6h28
				c3.7,0,6.6,3,6.6,6.6V918.3z"/>
			<path class="st15" d="M1342.6,923.9h-1H1322h-1c-8.5,0-15.3,6.9-15.3,15.5v31c0,8.5,6.8,15.5,15.3,15.5h1h19.6h1
				c8.5,0,15.7-6.9,15.7-15.5v-31C1358.3,930.9,1351.2,923.9,1342.6,923.9z"/>
			<rect x="1314.9" y="943.5" class="st6" width="34.1" height="17.5"/>
		</g>
		<g>
			<g>
				<path class="st16" d="M969,980.4v-1.8v-2.2c0,0,0-33.5,0-42.8c0-1.1,0-1.9,0-2.2v-1.8c0,0-0.1-4.6-4-5.6
					c-0.1-0.1-2.2-0.4-2.2-0.4h-13.2h0h-6.1h0h-13.2c0,0-1.1,0.3-1.3,0.4c-4,1.1-3.1,5.6-3.1,5.6v1.8c0,0.3,0,1.1,0,2.2
					c0,9.3,0,42.8,0,42.8v2.2v1.8c0,0-0.9,4.2,3.1,5.3c0.1,0.1-0.4,0-0.4,0h1.7c3.3,0,8.8,0,13.2,0h0c0,0,2.7,0,6.1,0c0,0,0,0,0,0
					c4.3,0,9.9,0,13.2,0h1.7c0,0,0.4,0.1,0.6,0C969,984.6,969,980.4,969,980.4z"/>
				<path class="st6" d="M962,971.5V970c0,0,0-23.5,0-30c0-0.8,0-1.3,0-1.5v-1.2c0,0,0.1-2.9-2.7-3.6c-0.1-0.1-1.4,0-1.4,0h-9.2h0
					h-4.3h0h-9.2c0,0-1.4-0.1-1.5,0c-2.8,0.7-2.7,3.6-2.7,3.6v1.2c0,0.2,0,0.8,0,1.5c0,6.5,0,30,0,30v1.5v1.2c0,0,0,3.5,2.7,4.3
					c0.1,0.1,1.5,0.6,1.5,0.6c2.3,0,6.2,0,9.2,0h0c0,0,1.9,0,4.3,0c0,0,0,0,0,0c3,0,6.9,0,9.2,0c0,0,1.3-0.5,1.4-0.6
					c2.8-0.7,2.7-4.3,2.7-4.3V971.5z"/>
				<rect x="932.1" y="944.8" class="st12" width="28.9" height="19.1"/>
				<rect x="931.4" y="918.5" class="st16" width="29.7" height="6"/>
				<path class="st14" d="M965.2,920.7c0.1-0.3,0.1-0.7,0.1-1v-10.6c0-1.9-1.4-3.4-3.1-3.4h-31.3c-1.7,0-3.1,1.5-3.1,3.4v10.6
					c0,0.3,0,0.7,0.1,1H965.2z"/>
				<path class="st17" d="M930.1,911.3v9.4h-1.4v-9.4c0-0.4,0.3-0.7,0.7-0.7C929.8,910.6,930.1,910.9,930.1,911.3z M933.1,910.6
					c-0.4,0-0.7,0.3-0.7,0.7v9.4h1.4v-9.4C933.8,910.9,933.5,910.6,933.1,910.6z M936.8,910.6c-0.4,0-0.7,0.3-0.7,0.7v9.4h1.4v-9.4
					C937.5,910.9,937.2,910.6,936.8,910.6z M940.6,910.6c-0.4,0-0.7,0.3-0.7,0.7v9.4h1.4v-9.4C941.3,910.9,940.9,910.6,940.6,910.6z
					 M944.3,910.6c-0.4,0-0.7,0.3-0.7,0.7v9.4h1.4v-9.4C945,910.9,944.7,910.6,944.3,910.6z M948,910.6c-0.4,0-0.7,0.3-0.7,0.7v9.4
					h1.4v-9.4C948.7,910.9,948.4,910.6,948,910.6z M951.8,910.6c-0.4,0-0.7,0.3-0.7,0.7v9.4h1.4v-9.4
					C952.5,910.9,952.1,910.6,951.8,910.6z M955.5,910.6c-0.4,0-0.7,0.3-0.7,0.7v9.4h1.4v-9.4C956.2,910.9,955.9,910.6,955.5,910.6z
					 M959.2,910.6c-0.4,0-0.7,0.3-0.7,0.7v9.4h1.4v-9.4C959.9,910.9,959.6,910.6,959.2,910.6z M963,910.6c-0.4,0-0.7,0.3-0.7,0.7
					v9.4h1.4v-9.4C963.7,910.9,963.3,910.6,963,910.6z"/>
			</g>
			<g>
				<g>
					<path class="st10" d="M851.7,944.9c0-6.1,0.6-10.2-4.1-11.7c-4.7-1.4-4.9-5.5-4.9-5.5h-4.1h-6h-4.1c0,0-0.2,4.1-4.9,5.5
						c-4.7,1.4-4.1,5.5-4.1,11.7c0,6.1,0,33.6,0,33.6s-0.6,7.7,6.4,7.7c2.5,0,4.8,0,6.7,0c0,0,2.4,0,6,0c2,0,4.3,0,6.7,0
						c7,0,6.4-7.7,6.4-7.7S851.7,951.1,851.7,944.9z"/>
					<path class="st18" d="M845.4,915.6c-0.1-1-0.3-1.8-1.2-2.7c-1.4-1.5-2.1-5.4-2.1-6.8c0-2.1-1.6-2.1-1.6-2.1h-1h0h-0.6l-0.5,0
						l0,0h-5.5l0,0l-0.5,0h-0.6h0h-1c0,0-1.6,0-1.6,2.1c0,1.4-0.7,5.3-2.1,6.8c-0.8,0.9-1.1,1.7-1.2,2.7h0v0.2c0,0.6,0,1.3,0,2.1
						v11.2h19.5L845.4,915.6L845.4,915.6z"/>
					<polygon class="st8" points="844.5,926.3 844.5,915.8 844,915.8 844,926.3 842.6,926.3 842.6,915.8 842.1,915.8 842.1,926.3 
						840.7,926.3 840.7,915.8 840.2,915.8 840.2,926.3 838.8,926.3 838.8,915.8 838.4,915.8 838.4,926.3 836.9,926.3 836.9,915.8 
						836.5,915.8 836.5,926.3 835,926.3 835,915.8 834.6,915.8 834.6,926.3 833.2,926.3 833.2,915.8 832.7,915.8 832.7,926.3 
						831.3,926.3 831.3,915.8 830.8,915.8 830.8,926.3 829.4,926.3 829.4,915.8 828.9,915.8 828.9,926.3 827.5,926.3 827.5,915.8 
						827,915.8 827,926.3 825.9,926.3 825.9,927.4 845.4,927.4 845.4,926.3 					"/>
					<path class="st12" d="M846.8,978.9c0,1.4-1.1,2.5-2.5,2.5h-17.5c-1.4,0-2.5-1.1-2.5-2.5v-39.1c0-1.4,1.1-2.5,2.5-2.5h17.5
						c1.4,0,2.5,1.1,2.5,2.5V978.9z"/>
				</g>
				<path class="st10" d="M844.4,943c0,0.5-0.4,0.8-0.8,0.8h-15.5c-0.5,0-0.8-0.3-0.8-0.8l0,0c0-0.5,0.4-0.8,0.8-0.8h15.5
					C844,942.2,844.4,942.5,844.4,943L844.4,943z"/>
			</g>
			<g>
				<path class="st6" d="M903.7,920.1v-7.3h-25.2v7.3c-1.6,0.9-3.8,2.7-3.8,4.7v55.9c0,3,2.5,5.5,5.5,5.5h21.9c3,0,5.5-2.5,5.5-5.5
					v-55.9C907.6,922.8,905.4,921.1,903.7,920.1z"/>
				<rect x="877.4" y="941.2" class="st12" width="27.4" height="16.9"/>
				<path class="st14" d="M907.1,912.9c0,1.2-1,2.1-2.1,2.1h-27.7c-1.2,0-2.1-1-2.1-2.1V905c0-1.2,1-2.1,2.1-2.1H905
					c1.2,0,2.1,1,2.1,2.1V912.9z"/>
			</g>
			<g>
				<g>
					<path class="st19" d="M792.8,920.1v-7.3h-25.2v7.3c-1.6,0.9-3.8,2.7-3.8,4.7v55.9c0,3,2.5,5.5,5.5,5.5h21.9
						c3,0,5.5-2.5,5.5-5.5v-55.9C796.6,922.8,794.4,921.1,792.8,920.1z"/>
					<rect x="766.5" y="927.4" class="st12" width="27.4" height="46.3"/>
					<path class="st16" d="M796.2,912.9c0,1.2-1,2.1-2.1,2.1h-27.7c-1.2,0-2.1-1-2.1-2.1V905c0-1.2,1-2.1,2.1-2.1H794
						c1.2,0,2.1,1,2.1,2.1V912.9z"/>
				</g>
				<path class="st20" d="M792,934.4c0,0.7-0.6,1.2-1.2,1.2h-21.1c-0.7,0-1.2-0.6-1.2-1.2l0,0c0-0.7,0.6-1.2,1.2-1.2h21.1
					C791.5,933.2,792,933.7,792,934.4L792,934.4z"/>
				<path class="st20" d="M792,939.1c0,0.7-0.6,1.2-1.2,1.2h-21.1c-0.7,0-1.2-0.6-1.2-1.2l0,0c0-0.7,0.6-1.2,1.2-1.2h21.1
					C791.4,937.9,792,938.4,792,939.1L792,939.1z"/>
			</g>
		</g>
		<g>
			<g>
				<path class="st16" d="M1198,980.4v-1.8v-2.2c0,0,0-33.5,0-42.8c0-1.1,0-1.9,0-2.2v-1.8c0,0-0.1-4.6-4-5.6
					c-0.1-0.1-2.2-0.4-2.2-0.4h-13.2h0h-6.1h0h-13.2c0,0-1.6,0.3-1.8,0.4c-4,1.1-3.6,5.6-3.6,5.6v1.8c0,0.3,0,1.1,0,2.2
					c0,9.3,0,42.8,0,42.8v2.2v1.8c0,0-0.4,4.2,3.6,5.3c0.1,0.1,0.1,0,0.1,0h1.7c3.3,0,8.8,0,13.2,0h0c0,0,2.7,0,6.1,0c0,0,0,0,0,0
					c4.3,0,9.9,0,13.2,0h1.7c0,0,0.4,0.1,0.6,0C1197.9,984.6,1198,980.4,1198,980.4z"/>
				<path class="st6" d="M1191,971.5V970c0,0,0-23.5,0-30c0-0.8,0-1.3,0-1.5v-1.2c0,0,0.1-2.9-2.7-3.6c-0.1-0.1-1.4,0-1.4,0h-9.2h0
					h-4.3h0h-9.2c0,0-1.4-0.1-1.5,0c-2.8,0.7-2.7,3.6-2.7,3.6v1.2c0,0.2,0,0.8,0,1.5c0,6.5,0,30,0,30v1.5v1.2c0,0,0,3.5,2.7,4.3
					c0.1,0.1,1.5,0.6,1.5,0.6c2.3,0,6.2,0,9.2,0h0c0,0,1.9,0,4.3,0c0,0,0,0,0,0c3,0,6.9,0,9.2,0c0,0,1.3-0.5,1.4-0.6
					c2.8-0.7,2.7-4.3,2.7-4.3V971.5z"/>
				<rect x="1161.1" y="944.8" class="st12" width="28.9" height="19.1"/>
				<rect x="1160.4" y="918.5" class="st16" width="29.7" height="6"/>
				<path class="st14" d="M1194.2,920.7c0.1-0.3,0.1-0.7,0.1-1v-10.6c0-1.9-1.4-3.4-3.1-3.4h-31.3c-1.7,0-3.1,1.5-3.1,3.4v10.6
					c0,0.3,0,0.7,0.1,1H1194.2z"/>
				<path class="st17" d="M1159.1,911.3v9.4h-1.4v-9.4c0-0.4,0.3-0.7,0.7-0.7C1158.7,910.6,1159.1,910.9,1159.1,911.3z
					 M1162.1,910.6c-0.4,0-0.7,0.3-0.7,0.7v9.4h1.4v-9.4C1162.8,910.9,1162.5,910.6,1162.1,910.6z M1165.8,910.6
					c-0.4,0-0.7,0.3-0.7,0.7v9.4h1.4v-9.4C1166.5,910.9,1166.2,910.6,1165.8,910.6z M1169.6,910.6c-0.4,0-0.7,0.3-0.7,0.7v9.4h1.4
					v-9.4C1170.3,910.9,1169.9,910.6,1169.6,910.6z M1173.3,910.6c-0.4,0-0.7,0.3-0.7,0.7v9.4h1.4v-9.4
					C1174,910.9,1173.7,910.6,1173.3,910.6z M1177,910.6c-0.4,0-0.7,0.3-0.7,0.7v9.4h1.4v-9.4C1177.7,910.9,1177.4,910.6,1177,910.6
					z M1180.8,910.6c-0.4,0-0.7,0.3-0.7,0.7v9.4h1.4v-9.4C1181.4,910.9,1181.1,910.6,1180.8,910.6z M1184.5,910.6
					c-0.4,0-0.7,0.3-0.7,0.7v9.4h1.4v-9.4C1185.2,910.9,1184.9,910.6,1184.5,910.6z M1188.2,910.6c-0.4,0-0.7,0.3-0.7,0.7v9.4h1.4
					v-9.4C1188.9,910.9,1188.6,910.6,1188.2,910.6z M1192,910.6c-0.4,0-0.7,0.3-0.7,0.7v9.4h1.4v-9.4
					C1192.6,910.9,1192.3,910.6,1192,910.6z"/>
			</g>
			<g>
				<g>
					<path class="st10" d="M1080.7,944.9c0-6.1,0.6-10.2-4.1-11.7c-4.7-1.4-4.9-5.5-4.9-5.5h-4.1h-6h-4.1c0,0-0.2,4.1-4.9,5.5
						c-4.7,1.4-4.1,5.5-4.1,11.7c0,6.1,0,33.6,0,33.6s-0.6,7.7,6.4,7.7c2.5,0,4.8,0,6.7,0c0,0,2.4,0,6,0c2,0,4.3,0,6.7,0
						c7,0,6.4-7.7,6.4-7.7S1080.7,951.1,1080.7,944.9z"/>
					<path class="st18" d="M1074.4,915.6c-0.1-1-0.3-1.8-1.2-2.7c-1.4-1.5-2.1-5.4-2.1-6.8c0-2.1-1.6-2.1-1.6-2.1h-1h0h-0.6l-0.5,0
						l0,0h-5.5l0,0l-0.5,0h-0.6h0h-1c0,0-1.6,0-1.6,2.1c0,1.4-0.7,5.3-2.1,6.8c-0.8,0.9-1.1,1.7-1.2,2.7h0v0.2c0,0.6,0,1.3,0,2.1
						v11.2h19.5L1074.4,915.6L1074.4,915.6z"/>
					<polygon class="st8" points="1073.5,926.3 1073.5,915.8 1073,915.8 1073,926.3 1071.6,926.3 1071.6,915.8 1071.1,915.8 
						1071.1,926.3 1069.7,926.3 1069.7,915.8 1069.2,915.8 1069.2,926.3 1067.8,926.3 1067.8,915.8 1067.3,915.8 1067.3,926.3 
						1065.9,926.3 1065.9,915.8 1065.4,915.8 1065.4,926.3 1064,926.3 1064,915.8 1063.6,915.8 1063.6,926.3 1062.1,926.3 
						1062.1,915.8 1061.7,915.8 1061.7,926.3 1060.2,926.3 1060.2,915.8 1059.8,915.8 1059.8,926.3 1058.4,926.3 1058.4,915.8 
						1057.9,915.8 1057.9,926.3 1056.5,926.3 1056.5,915.8 1056,915.8 1056,926.3 1054.9,926.3 1054.9,927.4 1074.4,927.4 
						1074.4,926.3 					"/>
					<path class="st12" d="M1075.8,978.9c0,1.4-1.1,2.5-2.5,2.5h-17.5c-1.4,0-2.5-1.1-2.5-2.5v-39.1c0-1.4,1.1-2.5,2.5-2.5h17.5
						c1.4,0,2.5,1.1,2.5,2.5V978.9z"/>
				</g>
				<path class="st10" d="M1073.4,943c0,0.5-0.4,0.8-0.8,0.8h-15.5c-0.5,0-0.8-0.3-0.8-0.8l0,0c0-0.5,0.4-0.8,0.8-0.8h15.5
					C1073,942.2,1073.4,942.5,1073.4,943L1073.4,943z"/>
			</g>
			<g>
				<path class="st6" d="M1132.7,920.1v-7.3h-25.2v7.3c-1.6,0.9-3.8,2.7-3.8,4.7v55.9c0,3,2.5,5.5,5.5,5.5h21.9c3,0,5.5-2.5,5.5-5.5
					v-55.9C1136.6,922.8,1134.4,921.1,1132.7,920.1z"/>
				<rect x="1106.4" y="941.2" class="st12" width="27.4" height="16.9"/>
				<path class="st14" d="M1136.1,912.9c0,1.2-1,2.1-2.1,2.1h-27.7c-1.2,0-2.1-1-2.1-2.1V905c0-1.2,1-2.1,2.1-2.1h27.7
					c1.2,0,2.1,1,2.1,2.1V912.9z"/>
			</g>
			<g>
				<g>
					<path class="st19" d="M1021.8,920.1v-7.3h-25.2v7.3c-1.6,0.9-3.8,2.7-3.8,4.7v55.9c0,3,2.5,5.5,5.5,5.5h21.9
						c3,0,5.5-2.5,5.5-5.5v-55.9C1025.6,922.8,1023.4,921.1,1021.8,920.1z"/>
					<rect x="995.5" y="927.4" class="st12" width="27.4" height="46.3"/>
					<path class="st16" d="M1025.2,912.9c0,1.2-1,2.1-2.1,2.1h-27.7c-1.2,0-2.1-1-2.1-2.1V905c0-1.2,1-2.1,2.1-2.1h27.7
						c1.2,0,2.1,1,2.1,2.1V912.9z"/>
				</g>
				<path class="st20" d="M1021,934.4c0,0.7-0.6,1.2-1.2,1.2h-21.1c-0.7,0-1.2-0.6-1.2-1.2l0,0c0-0.7,0.6-1.2,1.2-1.2h21.1
					C1020.5,933.2,1021,933.7,1021,934.4L1021,934.4z"/>
				<path class="st20" d="M1020.9,939.1c0,0.7-0.6,1.2-1.2,1.2h-21.1c-0.7,0-1.2-0.6-1.2-1.2l0,0c0-0.7,0.6-1.2,1.2-1.2h21.1
					C1020.4,937.9,1020.9,938.4,1020.9,939.1L1020.9,939.1z"/>
			</g>
		</g>
		<g>
			<g>
				<path class="st16" d="M1163,807.5v-1.8v-2.2c0,0,0-33.5,0-42.8c0-1.1,0-1.9,0-2.2v-1.8c0,0,0.2-4.2-3.8-5.2c-0.1-0.1-2,0-2,0
					H1144h0h-6.1h0h-13.2c0,0-1.4-0.2-1.5,0c-4,1.1-3.3,5.2-3.3,5.2v1.8c0,0.3,0,1.1,0,2.2c0,9.3,0,42.8,0,42.8v2.2v1.8
					c0,0-0.7,4.1,3.3,5.2c0.1,0.1-0.2-0.1-0.2-0.1h1.7c3.3,0,8.8,0,13.2,0h0c0,0,2.7,0,6.1,0c0,0,0,0,0,0c4.3,0,9.9,0,13.2,0h1.7
					c0,0,0.2,0.2,0.3,0.1C1163.2,811.7,1163,807.5,1163,807.5z"/>
				<path class="st6" d="M1156,798.7v-1.5c0,0,0-23.5,0-30c0-0.8,0-1.3,0-1.5v-1.2c0,0,0.3-2.5-2.4-3.2c-0.1-0.1-1.2,0.4-1.2,0.4
					h-9.2h0h-4.3h0h-9.2c0,0-1.1-0.5-1.2-0.4c-2.8,0.7-2.4,3.2-2.4,3.2v1.2c0,0.2,0,0.8,0,1.5c0,6.5,0,30,0,30v1.5v1.2
					c0,0-0.3,3.4,2.4,4.2c0.1,0.1,1.2,0.5,1.2,0.5c2.3,0,6.2,0,9.2,0h0c0,0,1.9,0,4.3,0c0,0,0,0,0,0c3,0,6.9,0,9.2,0
					c0,0,1.1-0.4,1.2-0.5c2.8-0.7,2.5-4.2,2.5-4.2V798.7z"/>
				<rect x="1126.5" y="771.9" class="st12" width="28.9" height="19.1"/>
				<rect x="1125.8" y="745.7" class="st16" width="29.7" height="6"/>
				<path class="st14" d="M1159.6,747.8c0.1-0.3,0.1-0.7,0.1-1v-10.6c0-1.9-1.4-3.4-3.1-3.4h-31.3c-1.7,0-3.1,1.5-3.1,3.4v10.6
					c0,0.3,0,0.7,0.1,1H1159.6z"/>
				<path class="st17" d="M1124.5,738.4v9.4h-1.4v-9.4c0-0.4,0.3-0.7,0.7-0.7C1124.2,737.8,1124.5,738.1,1124.5,738.4z
					 M1127.5,737.8c-0.4,0-0.7,0.3-0.7,0.7v9.4h1.4v-9.4C1128.2,738.1,1127.9,737.8,1127.5,737.8z M1131.3,737.8
					c-0.4,0-0.7,0.3-0.7,0.7v9.4h1.4v-9.4C1132,738.1,1131.6,737.8,1131.3,737.8z M1135,737.8c-0.4,0-0.7,0.3-0.7,0.7v9.4h1.4v-9.4
					C1135.7,738.1,1135.4,737.8,1135,737.8z M1138.7,737.8c-0.4,0-0.7,0.3-0.7,0.7v9.4h1.4v-9.4
					C1139.4,738.1,1139.1,737.8,1138.7,737.8z M1142.5,737.8c-0.4,0-0.7,0.3-0.7,0.7v9.4h1.4v-9.4
					C1143.2,738.1,1142.8,737.8,1142.5,737.8z M1146.2,737.8c-0.4,0-0.7,0.3-0.7,0.7v9.4h1.4v-9.4
					C1146.9,738.1,1146.6,737.8,1146.2,737.8z M1149.9,737.8c-0.4,0-0.7,0.3-0.7,0.7v9.4h1.4v-9.4
					C1150.6,738.1,1150.3,737.8,1149.9,737.8z M1153.7,737.8c-0.4,0-0.7,0.3-0.7,0.7v9.4h1.4v-9.4
					C1154.3,738.1,1154,737.8,1153.7,737.8z M1157.4,737.8c-0.4,0-0.7,0.3-0.7,0.7v9.4h1.4v-9.4
					C1158.1,738.1,1157.8,737.8,1157.4,737.8z"/>
			</g>
			<g>
				<g>
					<path class="st10" d="M1046.1,772.1c0-6.1,0.6-10.2-4.1-11.7c-4.7-1.4-4.9-5.5-4.9-5.5h-4.1h-6h-4.1c0,0-0.2,4.1-4.9,5.5
						c-4.7,1.4-4.1,5.5-4.1,11.7c0,6.1,0,33.6,0,33.6s-0.6,7.7,6.4,7.7c2.5,0,4.8,0,6.7,0c0,0,2.4,0,6,0c2,0,4.3,0,6.7,0
						c7,0,6.4-7.7,6.4-7.7S1046.1,778.3,1046.1,772.1z"/>
					<path class="st18" d="M1039.8,742.8c-0.1-1-0.3-1.8-1.2-2.7c-1.4-1.5-2.1-5.4-2.1-6.8c0-2.1-1.6-2.1-1.6-2.1h-1h0h-0.6l-0.5,0
						l0,0h-5.5l0,0l-0.5,0h-0.6h0h-1c0,0-1.6,0-1.6,2.1c0,1.4-0.7,5.3-2.1,6.8c-0.8,0.9-1.1,1.7-1.2,2.7h0v0.2c0,0.6,0,1.3,0,2.1
						v11.2h19.5L1039.8,742.8L1039.8,742.8z"/>
					<polygon class="st8" points="1038.9,753.5 1038.9,743 1038.5,743 1038.5,753.5 1037,753.5 1037,743 1036.6,743 1036.6,753.5 
						1035.1,753.5 1035.1,743 1034.7,743 1034.7,753.5 1033.3,753.5 1033.3,743 1032.8,743 1032.8,753.5 1031.4,753.5 1031.4,743 
						1030.9,743 1030.9,753.5 1029.5,753.5 1029.5,743 1029,743 1029,753.5 1027.6,753.5 1027.6,743 1027.1,743 1027.1,753.5 
						1025.7,753.5 1025.7,743 1025.2,743 1025.2,753.5 1023.8,753.5 1023.8,743 1023.3,743 1023.3,753.5 1021.9,753.5 1021.9,743 
						1021.4,743 1021.4,753.5 1020.3,753.5 1020.3,754.5 1039.8,754.5 1039.8,753.5 					"/>
					<path class="st12" d="M1041.2,806c0,1.4-1.1,2.5-2.5,2.5h-17.5c-1.4,0-2.5-1.1-2.5-2.5V767c0-1.4,1.1-2.5,2.5-2.5h17.5
						c1.4,0,2.5,1.1,2.5,2.5V806z"/>
				</g>
				<path class="st10" d="M1038.8,770.1c0,0.5-0.4,0.8-0.8,0.8h-15.5c-0.5,0-0.8-0.3-0.8-0.8l0,0c0-0.5,0.4-0.8,0.8-0.8h15.5
					C1038.4,769.3,1038.8,769.7,1038.8,770.1L1038.8,770.1z"/>
			</g>
			<g>
				<path class="st6" d="M1098.2,747.3V740H1073v7.3c-1.6,0.9-3.8,2.7-3.8,4.7v55.9c0,3,2.5,5.5,5.5,5.5h21.9c3,0,5.5-2.5,5.5-5.5
					V752C1102,750,1099.8,748.3,1098.2,747.3z"/>
				<rect x="1071.9" y="768.4" class="st12" width="27.4" height="16.9"/>
				<path class="st14" d="M1101.6,740.1c0,1.2-1,2.1-2.1,2.1h-27.7c-1.2,0-2.1-1-2.1-2.1v-7.9c0-1.2,1-2.1,2.1-2.1h27.7
					c1.2,0,2.1,1,2.1,2.1V740.1z"/>
			</g>
			<g>
				<g>
					<path class="st19" d="M987.2,747.3V740H962v7.3c-1.6,0.9-3.8,2.7-3.8,4.7v55.9c0,3,2.5,5.5,5.5,5.5h21.9c3,0,5.5-2.5,5.5-5.5
						V752C991,750,988.8,748.3,987.2,747.3z"/>
					<rect x="960.9" y="754.6" class="st12" width="27.4" height="46.3"/>
					<path class="st16" d="M990.6,740.1c0,1.2-1,2.1-2.1,2.1h-27.7c-1.2,0-2.1-1-2.1-2.1v-7.9c0-1.2,1-2.1,2.1-2.1h27.7
						c1.2,0,2.1,1,2.1,2.1V740.1z"/>
				</g>
				<path class="st20" d="M986.5,761.6c0,0.7-0.6,1.2-1.2,1.2h-21.1c-0.7,0-1.2-0.6-1.2-1.2l0,0c0-0.7,0.6-1.2,1.2-1.2h21.1
					C985.9,760.4,986.5,760.9,986.5,761.6L986.5,761.6z"/>
				<path class="st20" d="M986.4,766.3c0,0.7-0.6,1.2-1.2,1.2H964c-0.7,0-1.2-0.6-1.2-1.2l0,0c0-0.7,0.6-1.2,1.2-1.2h21.1
					C985.8,765,986.4,765.6,986.4,766.3L986.4,766.3z"/>
			</g>
		</g>
		<g>
			<g>
				<path class="st16" d="M1345.5,1220.5h-5.5v-46.4c0-6.8,5-12.3,11.2-12.3h25.6c6.1,0,11.1,5.5,11.1,12.3v45.7h-5.5v-45.7
					c0-3.7-2.5-6.8-5.6-6.8h-25.6c-3.1,0-5.6,3-5.6,6.8V1220.5z"/>
			</g>
			<rect x="1309.1" y="1198.7" class="st6" width="122.9" height="129.7"/>
			<rect x="1309.1" y="1198.7" class="st12" width="24.4" height="129.7"/>
			<g>
				<path class="st6" d="M1362.1,1220.5h-5.5v-46.4c0-6.8,5-12.3,11.1-12.3h25.6c6.1,0,11.1,5.5,11.1,12.3v45.7h-5.5v-45.7
					c0-3.7-2.5-6.8-5.6-6.8h-25.6c-3.1,0-5.6,3-5.6,6.8V1220.5z"/>
			</g>
			<path class="st12" d="M1378.7,1238.3c-14,0-25.3,11.3-25.3,25.3c0,13.9,11.3,25.3,25.3,25.3c13.9,0,25.3-11.3,25.3-25.3
				C1403.9,1249.6,1392.6,1238.3,1378.7,1238.3z M1395.7,1268.9H1384v11.7h-10.7v-11.7h-11.7v-10.7h11.7v-11.7h10.7v11.7h11.7
				V1268.9z"/>
		</g>
		<g>
			<g>
				<path class="st21" d="M744.2,995.7c-6.8-5-17.3,3.1-21.8,10.4c-4.1,6.7-21.8,92.9-21.8,92.9l30,7L744.2,995.7z"/>
				<linearGradient id="SVGID_2_" gradientUnits="userSpaceOnUse" x1="693.2744" y1="1128.5409" x2="732.5198" y2="1128.5409">
					<stop  offset="0.2957" style="stop-color:#FFDA8B"/>
					<stop  offset="0.4333" style="stop-color:#FDC784"/>
					<stop  offset="0.7115" style="stop-color:#F79772"/>
					<stop  offset="1" style="stop-color:#F15F5D"/>
				</linearGradient>
				<polygon class="st22" points="700.7,1099 693.3,1127.8 729.6,1158 730.7,1106 				"/>
			</g>
			<linearGradient id="SVGID_3_" gradientUnits="userSpaceOnUse" x1="773.8468" y1="975.1737" x2="813.5167" y2="952.4356">
				<stop  offset="0.2957" style="stop-color:#FFDA8B"/>
				<stop  offset="0.4333" style="stop-color:#FDC784"/>
				<stop  offset="0.7115" style="stop-color:#F79772"/>
				<stop  offset="1" style="stop-color:#F15F5D"/>
			</linearGradient>
			<path class="st23" d="M814.6,955.2c0,0-15.5,20-5.8,35.1l-42.1-11.5c0,0,7.7-14.8,7.3-32.7c0-0.6,0-1.3-0.1-1.9
				C772.8,925.5,814.6,955.2,814.6,955.2z"/>
			<path class="st24" d="M800.2,947.7l-10.8,7.5l-15.6-2l-20.1-43.5c0,0,5.3-23.5,19.7-24c14.4-0.5,52.8-9.6,56.2-16.3
				c3.4-6.7,25,5.3,20.2,19.2c-4.8,13.9-12.9,24.2-12.9,24.2L800.2,947.7z"/>
			<polygon class="st9" points="837.2,1185.6 883.3,1354.6 741.2,1354.6 719.3,1234.3 719.6,1185.6 			"/>
			<path class="st11" d="M766.7,978.7c0,0-34.9,7.2-42.1,34.6c-7.2,27.4-8,209.3-8,209.3l129.1-4.3l-12.3-199L808.9,989L766.7,978.7
				z"/>
			<path class="st21" d="M837.7,1032c0,0-6-24-20.8-22.1c-0.9,0.1-29.6,13-20.8,36c4.3,11.3,16.2,41.4,28.6,68.6l36.1-27.9
				L837.7,1032z"/>
			<linearGradient id="SVGID_4_" gradientUnits="userSpaceOnUse" x1="952.4247" y1="1113.2844" x2="810.2833" y2="1072.7609">
				<stop  offset="0.2957" style="stop-color:#FFDA8B"/>
				<stop  offset="0.4333" style="stop-color:#FDC784"/>
				<stop  offset="0.7115" style="stop-color:#F79772"/>
				<stop  offset="1" style="stop-color:#F15F5D"/>
			</linearGradient>
			<path class="st25" d="M967.6,1037.8c-3.4-1.1-13,23.1-23.6,23.4c-6.7,0.2,1.4-12.7-1.8-13.6c-3.2-0.8-5.9,12.1-11.6,16.1
				c-5.8,4-5.4,9.7-4.1,12.2l-54.7,36.3l-10.9-25.6l-36.1,27.9c13,28.4,26.6,53.7,33,51c12.5-5.3,69.6-67.7,69.6-67.7l3.3-3.6
				c8.5-6.7,35.1-15.7,40.2-23C975.9,1063.8,971,1039,967.6,1037.8z"/>
			<linearGradient id="SVGID_5_" gradientUnits="userSpaceOnUse" x1="854.7166" y1="960.6622" x2="786.1544" y2="897.5093">
				<stop  offset="0.2957" style="stop-color:#FFDA8B"/>
				<stop  offset="0.4333" style="stop-color:#FDC784"/>
				<stop  offset="0.7115" style="stop-color:#F79772"/>
				<stop  offset="1" style="stop-color:#F15F5D"/>
			</linearGradient>
			<path class="st26" d="M835.7,902.4c0,0,8.6,71.5-10.6,65.8c-19.2-5.8-25-20.5-25-20.5l1.9-8.8c0,0-7.7-2.2-7.7-14.6
				c0-11.4,9.6-19,12.9-12.8c3.4,6.2,3.8,10.1,3.8,10.1l5.7-16.3L835.7,902.4z"/>
		</g>
		<g>
			<rect x="603.6" y="645.2" class="st6" width="778" height="56.7"/>
			<polygon class="st27" points="626.3,656.6 588.1,656.6 588.1,686 637.7,686 637.7,656.6 			"/>
			<polygon class="st6" points="873.5,656.6 836.1,656.6 836.1,686 885.5,686 			"/>
			<rect x="736.9" y="656.6" class="st6" width="49.6" height="29.3"/>
			<g>
				<polygon class="st27" points="801.4,656.6 786.5,656.6 786.5,686 813.5,686 836.1,686 836.1,656.6 				"/>
				<polygon class="st6" points="649.6,656.6 637.7,656.6 637.7,686 637.9,686 638.3,686 687.3,686 687.3,656.6 				"/>
				<rect x="687.3" y="656.6" class="st27" width="49.6" height="29.3"/>
			</g>
			<g>
				<rect x="885.5" y="656.6" class="st27" width="49.6" height="29.3"/>
				<polygon class="st27" points="1198.1,656.6 1183.1,656.6 1183.1,686 1210.1,686 1232.7,686 1232.7,656.6 				"/>
				<polygon class="st27" points="1297.5,656.6 1282.5,656.6 1282.5,686 1309.5,686 1332.1,686 1332.1,656.6 				"/>
				<polygon class="st27" points="996.6,656.6 984.7,656.6 984.7,686 984.9,686 985.3,686 1034.3,686 1034.3,656.6 				"/>
				<rect x="1083.9" y="656.6" class="st27" width="49.6" height="29.3"/>
			</g>
			<g>
				<path class="st11" d="M588.1,686v42.3c0,13.7,11.1,24.8,24.8,24.8c13.7,0,24.8-11.1,24.8-24.8V686H588.1z"/>
				<path class="st8" d="M637.7,686v42.3c0,13.7,11.1,24.8,24.8,24.8c13.7,0,24.8-11.1,24.8-24.8V686H637.7z"/>
				<path class="st11" d="M687.3,686v42.3c0,13.7,11.1,24.8,24.8,24.8c13.7,0,24.8-11.1,24.8-24.8V686H687.3z"/>
				<path class="st8" d="M736.9,686v42.3c0,13.7,11.1,24.8,24.8,24.8c13.7,0,24.8-11.1,24.8-24.8V686H736.9z"/>
				<path class="st11" d="M786.5,686v42.3c0,13.7,11.1,24.8,24.8,24.8c13.7,0,24.8-11.1,24.8-24.8V686H786.5z"/>
				<path class="st8" d="M836.1,686v42.3c0,13.7,11.1,24.8,24.8,24.8c13.7,0,24.8-11.1,24.8-24.8V686H836.1z"/>
			</g>
			<g>
				<path class="st11" d="M885.5,686v42.3c0,13.7,11.1,24.8,24.8,24.8c13.7,0,24.8-11.1,24.8-24.8V686H885.5z"/>
				<path class="st8" d="M935.1,686v42.3c0,13.7,11.1,24.8,24.8,24.8c13.7,0,24.8-11.1,24.8-24.8V686H935.1z"/>
				<path class="st11" d="M984.7,686v42.3c0,13.7,11.1,24.8,24.8,24.8c13.7,0,24.8-11.1,24.8-24.8V686H984.7z"/>
				<path class="st8" d="M1034.3,686v42.3c0,13.7,11.1,24.8,24.8,24.8c13.7,0,24.8-11.1,24.8-24.8V686H1034.3z"/>
				<path class="st11" d="M1083.9,686v42.3c0,13.7,11.1,24.8,24.8,24.8c13.7,0,24.8-11.1,24.8-24.8V686H1083.9z"/>
				<path class="st8" d="M1133.5,686v42.3c0,13.7,11.1,24.8,24.8,24.8c13.7,0,24.8-11.1,24.8-24.8V686H1133.5z"/>
				<path class="st11" d="M1183.1,686v42.3c0,13.7,11.1,24.8,24.8,24.8c13.7,0,24.8-11.1,24.8-24.8V686H1183.1z"/>
				<path class="st8" d="M1232.7,686v42.3c0,13.7,11.1,24.8,24.8,24.8c13.7,0,24.8-11.1,24.8-24.8V686H1232.7z"/>
				<path class="st11" d="M1282.3,686v42.3c0,13.7,11.1,24.8,24.8,24.8c13.7,0,24.8-11.1,24.8-24.8V686H1282.3z"/>
				<path class="st8" d="M1332,686v42.3c0,13.7,11.1,24.8,24.8,24.8s24.8-11.1,24.8-24.8V686H1332z"/>
			</g>
			<rect x="588.1" y="608.2" class="st27" width="795.8" height="48.4"/>
		</g>
		<g>
			<rect x="1075" y="1026.6" class="st16" width="52" height="28"/>
			<linearGradient id="SVGID_6_" gradientUnits="userSpaceOnUse" x1="1082.9087" y1="1091.1123" x2="1202.4111" y2="1091.1123">
				<stop  offset="0.2957" style="stop-color:#FFDA8B"/>
				<stop  offset="0.4333" style="stop-color:#FDC784"/>
				<stop  offset="0.7115" style="stop-color:#F79772"/>
				<stop  offset="1" style="stop-color:#F15F5D"/>
			</linearGradient>
			<path class="st28" d="M1170.3,1074l0.8,26.8l-59-34c0,0-2.6-15.3-4.3-17.9c-1.7-2.6-14.2-7.6-15.8-8.2
				c-1.6-0.6-12.5,13.7-7.9,20.4c4.6,6.6,17.7,20.2,17.7,20.2s73.3,58.2,83.7,60.1c10.5,1.9,17-60.5,17-60.5"/>
			<path class="st6" d="M1261.1,990.7c0,0,36.1,17.5,40.2,30.7c4.1,13.2,5.4,166.9,5.4,166.9l-137.8-0.7c0,0,17.6-169.9,24.4-178.1
				c6.8-8.2,40.7-23.1,40.7-23.1L1261.1,990.7z"/>
			<rect x="1239.8" y="1137.5" class="st29" width="41.8" height="48.6"/>
			<polygon class="st29" points="1197.7,1186.3 1176.8,1186.3 1182.6,1137.7 1197.7,1137.7 			"/>
			<path class="st6" d="M1191.7,1011.1c0,0-18.7,4.7-22.7,55.6v11.3l35.3,7.2l9.6-48.9C1213.9,1036.4,1215,1011.2,1191.7,1011.1z"/>
			<linearGradient id="SVGID_7_" gradientUnits="userSpaceOnUse" x1="1229.4412" y1="996.5097" x2="1253.0626" y2="966.6101">
				<stop  offset="0.2957" style="stop-color:#FFDA8B"/>
				<stop  offset="0.4333" style="stop-color:#FDC784"/>
				<stop  offset="0.7115" style="stop-color:#F79772"/>
				<stop  offset="1" style="stop-color:#F15F5D"/>
			</linearGradient>
			<path class="st30" d="M1227,964.4c0,0,2,22.2-2.8,27.2c0,0-4.7,8.3,9.7,13.1c14.4,4.8,27.7-13.7,27.7-13.7s-10.7-31.5-9.3-42.2
				L1227,964.4z"/>
			<polygon class="st29" points="1260.8,988.4 1222.2,1044.1 1251.6,1029.3 1248,1019.5 1266.4,1009.8 			"/>
			<polygon class="st29" points="1225.4,987.9 1223,1042.8 1211.5,1021.6 1215.6,1013.4 1207.9,1005 			"/>
			<linearGradient id="SVGID_8_" gradientUnits="userSpaceOnUse" x1="1255.7396" y1="1134.7135" x2="1332.2374" y2="1134.7135">
				<stop  offset="0.2957" style="stop-color:#FFDA8B"/>
				<stop  offset="0.4333" style="stop-color:#FDC784"/>
				<stop  offset="0.7115" style="stop-color:#F79772"/>
				<stop  offset="1" style="stop-color:#F15F5D"/>
			</linearGradient>
			<path class="st31" d="M1319.7,1083.6c0,0,13.1,37.6,12.5,45.3c-0.6,7.7-30.1,56.3-30.1,56.3s-38.3,1.3-44.2,0
				c-5.9-1.4,2.3-6.5,2.3-6.5h16l20.5-51.3l-10.5-43.7H1319.7z"/>
			<g>
				<path class="st29" d="M1213.8,1187.6C1213.8,1187.6,1213.8,1187.6,1213.8,1187.6c-1.2,0-2.2-1-2.2-2.2
					c0-5.2,0.9-128.5,9.4-143.7c0.6-1,1.9-1.4,2.9-0.8c1,0.6,1.4,1.9,0.8,2.9c-6.6,11.8-8.6,106.3-8.8,141.6
					C1216,1186.6,1215,1187.6,1213.8,1187.6z"/>
			</g>
			<path class="st6" d="M1300.5,1019.6l19.6,65.6l-35.5,7.3l-16-57.5C1268.6,1035,1280.1,1019.7,1300.5,1019.6z"/>
			<path class="st24" d="M1254.9,968.4c0,0,14.8,2.7,22.6-12c0,0,19.5-2.7,15.7-30.1c0,0-4.8-17.4-21.2-10.6
				c0,0-15.7-32.8-34.2-33.1c-18.4-0.3-46,8.2-33.1,35.9l6.5-19.8c0,0-0.1,17.8,14.1,22.2c14.2,4.4,24.1,21.8,24.1,21.8
				L1254.9,968.4z"/>
			<linearGradient id="SVGID_9_" gradientUnits="userSpaceOnUse" x1="1202.5566" y1="936.0079" x2="1264.6409" y2="936.0079">
				<stop  offset="0.2957" style="stop-color:#FFDA8B"/>
				<stop  offset="0.4333" style="stop-color:#FDC784"/>
				<stop  offset="0.7115" style="stop-color:#F79772"/>
				<stop  offset="1" style="stop-color:#F15F5D"/>
			</linearGradient>
			<path class="st32" d="M1204.8,918.5c0,0-9.9,57.7,12,54.7c21.9-3.1,34.2-18.1,34.2-18.1s2.4,2,6.8,0.3
				c4.4-1.7,11.6-19.4,2.4-22.5s-11,4.7-11,4.7s1-28.6-13.9-18.3c-14.9,10.3-24-20.6-24-20.6L1204.8,918.5z"/>
		</g>
	</g>
	<g>
		<path class="st0" d="M387.9,713.5c2.2-7.4,4.3-12.2-0.9-15.6c-5.2-3.4-4-8.4-4-8.4l-4.9-1.4l-7.2-2.1l-4.9-1.4c0,0-1.7,4.9-7.9,5
			c-6.2,0.1-6.9,5.3-9,12.7c-2.2,7.4-11.8,40.6-11.8,40.6s-3.4,9.1,5,11.6c3,0.9,5.8,1.7,8.1,2.4c0,0,2.9,0.8,7.2,2.1
			c2.4,0.7,5.2,1.5,8.1,2.4c8.4,2.4,10.4-7.1,10.4-7.1S385.8,721,387.9,713.5z"/>
		<path class="st0" d="M390.5,675.8c0.3-1.3,0.3-2.3-0.4-3.7c-1.2-2.3-0.6-7.3-0.1-8.9c0.7-2.5-1.2-3.1-1.2-3.1l-1.3-0.4l0,0
			l-0.7-0.2l-0.6-0.2h0l-6.6-1.9l0,0l-0.6-0.2l-0.7-0.2l0,0l-1.2-0.4c0,0-1.9-0.6-2.7,2c-0.5,1.7-2.7,6.1-4.9,7.5
			c-1.3,0.8-1.9,1.7-2.4,2.9h0l-0.1,0.2c-0.2,0.7-0.5,1.6-0.7,2.6l-3.9,13.5l23.6,6.8L390.5,675.8L390.5,675.8z"/>
		<polygon class="st0" points="385.7,688.5 389.4,675.8 388.8,675.6 385.1,688.4 383.4,687.9 387.1,675.1 386.5,674.9 382.8,687.7 
			381.1,687.2 384.8,674.4 384.2,674.3 380.5,687 378.8,686.5 382.5,673.8 381.9,673.6 378.3,686.4 376.5,685.9 380.2,673.1 
			379.7,672.9 376,685.7 374.2,685.2 377.9,672.4 377.4,672.3 373.7,685.1 372,684.6 375.7,671.8 375.1,671.6 371.4,684.4 
			369.7,683.9 373.4,671.1 372.8,671 369.1,683.7 367.4,683.2 371.1,670.5 370.5,670.3 366.8,683.1 365.1,682.6 368.8,669.8 
			368.2,669.6 364.5,682.4 363.2,682 362.8,683.2 386.4,690.1 386.8,688.9 		"/>
		<path class="st0" d="M370.1,752.9c-0.5,1.6-2.2,2.6-3.8,2.1l-21.2-6.1c-1.6-0.5-2.6-2.2-2.1-3.8l13.7-47.2
			c0.5-1.6,2.2-2.6,3.8-2.1l21.2,6.1c1.6,0.5,2.6,2.2,2.1,3.8L370.1,752.9z"/>
	</g>
	<g>
		<path class="st24" d="M1668.2,839.7l63.8-89.6c0,0-36.3-28-31.9-85.7c4.3-55.4,21.6-145.4,108.9-133.7
			c57.2,7.7,132.2,54.3,88.1,102.2"/>
		<linearGradient id="SVGID_10_" gradientUnits="userSpaceOnUse" x1="1814.2589" y1="851.1094" x2="1733.5471" y2="711.6765">
			<stop  offset="0.2957" style="stop-color:#FFDA8B"/>
			<stop  offset="0.4333" style="stop-color:#FDC784"/>
			<stop  offset="0.7115" style="stop-color:#F79772"/>
			<stop  offset="1" style="stop-color:#F15F5D"/>
		</linearGradient>
		<path class="st33" d="M1764.9,703.7c0,0-30.7,84.9-32.2,126.6c-1.6,41.7,0,2.4,0,2.4s105.4,103,160.4,89.6l-11.8-95.9
			c0,0-63.7-7.9-49.5-72.3L1764.9,703.7z"/>
		<path class="st34" d="M1762.9,719.4c0,0,8.8,59,68.5,66.7l-2.8-20.9l-49.7-44.6"/>
		<path class="st9" d="M1775.1,860.5l96.7,48.8l6.9-39.9c0,0,114.6,113.4,120.3,196c5.7,82.6-12.1,274.8-12.1,274.8l-174.4,1.3"/>
		<linearGradient id="SVGID_11_" gradientUnits="userSpaceOnUse" x1="1878.1862" y1="700.1841" x2="1749.8553" y2="633.9077">
			<stop  offset="0.2957" style="stop-color:#FFDA8B"/>
			<stop  offset="0.4333" style="stop-color:#FDC784"/>
			<stop  offset="0.7115" style="stop-color:#F79772"/>
			<stop  offset="1" style="stop-color:#F15F5D"/>
		</linearGradient>
		<path class="st35" d="M1895.4,612.4c0,0,12.6,177.7-32.2,171.4c-44.8-6.3-88.9-34.6-91.2-59.8c0,0-18.9,0-19.3-17.1
			c-0.4-17.1-0.2-51.9,15.7-47.8c15.9,4.1,16.3,11.6,16.3,11.6s11.4-27.1,12-28.3s37.9-41.7,58.4-47.2S1895.4,612.4,1895.4,612.4z"
			/>
		<polygon class="st6" points="1914.4,968.6 2057.7,1027.3 2049.7,1036.8 1912.6,979.3 		"/>
		<linearGradient id="SVGID_12_" gradientUnits="userSpaceOnUse" x1="1907.1973" y1="1060.452" x2="2029.4707" y2="1060.452">
			<stop  offset="0.2957" style="stop-color:#FFDA8B"/>
			<stop  offset="0.4333" style="stop-color:#FDC784"/>
			<stop  offset="0.7115" style="stop-color:#F79772"/>
			<stop  offset="1" style="stop-color:#F15F5D"/>
		</linearGradient>
		<path class="st36" d="M1907.2,1094.5c0,0,22.8-8.9,24.8-21.4s5.5-69.8,5.5-69.8l49.5-32.6l42.5,43.6l-4.3,22.8l-42.1,73.1
			l-60.9,40.1"/>
		<linearGradient id="SVGID_13_" gradientUnits="userSpaceOnUse" x1="1615.4727" y1="1048.2423" x2="1901.8289" y2="1048.2423">
			<stop  offset="0" style="stop-color:#FFFFFF"/>
			<stop  offset="1" style="stop-color:#97CCEF"/>
		</linearGradient>
		<path class="st37" d="M1652.6,1182.4l-33.1,157.5l279.1,1.6c3.9-30.7,8.2-207.1-12.2-291.9c-28.3-117.7-91.6-191.6-102.6-203.2
			c-18.9-20.1-35.4-91.2-35.4-91.2l-16.4,48.5c-50.2,15.7-116.5,114-116.5,114l37,263.2"/>
		<path class="st6" d="M1770.7,820l47.2,24.4l53.9,64.9l-63.4-24.2C1808.5,885.1,1766.4,833.4,1770.7,820z"/>
		<polyline class="st6" points="1855.7,832.6 1870.3,908.7 1880.5,860.9 1855.7,832.6 		"/>
		<path class="st13" d="M1965.4,984.8c0,0-36.1-68.9-69.1-93.2c-33-24.4-56.3-89.4-56.3-89.4v-2.7l66.5,29.2c0,0,34.2,8.6,50.7,56.6
			c16.5,48,29.7,85.3,29.7,85.3"/>
		<polygon class="st11" points="1987,1111.4 2116.7,917.5 2252,909.3 2112.8,1094.9 1998.2,1109.9 		"/>
		<linearGradient id="SVGID_14_" gradientUnits="userSpaceOnUse" x1="1977.1797" y1="1225.0341" x2="2020.7812" y2="1225.0341">
			<stop  offset="0" style="stop-color:#FFFFFF"/>
			<stop  offset="1" style="stop-color:#97CCEF"/>
		</linearGradient>
		<polygon class="st38" points="1977.2,1343.1 2000.8,1340.8 2020.8,1106.9 1998.2,1109.9 		"/>
		<linearGradient id="SVGID_15_" gradientUnits="userSpaceOnUse" x1="2068" y1="1076.8754" x2="2181.3638" y2="1076.8754">
			<stop  offset="0.2957" style="stop-color:#FFDA8B"/>
			<stop  offset="0.4333" style="stop-color:#FDC784"/>
			<stop  offset="0.7115" style="stop-color:#F79772"/>
			<stop  offset="1" style="stop-color:#F15F5D"/>
		</linearGradient>
		<path class="st39" d="M2165.6,1048.4l15.6-7.2c0,0,0.3-4.8,0-9.2c-0.3-4.4-41.9-12.1-41.9-12.1s-7.7,10,0,14.1
			c7.7,4.1-23.3,2.4-25.4,6.5c-2.1,4.1,5.5,16.2,5.5,16.2s-13.2,0.2-14.6,3.6s-10,17.3-1.8,22.3c8.3,5,11.4,9.5,11.4,9.5l-46.4,8.4
			v33.1l38-14.2c0,0,32,0.9,43.5-8.3s22.5-54.8,22.5-54.8L2165.6,1048.4z"/>
		<polygon class="st6" points="2011.4,1211.7 2080.4,1191 2068.6,1100.7 1998,1111.4 1986.9,1216.9 		"/>
		<g>
			<g>
				<path class="st24" d="M1850.7,709.2c-15.3,0-27.7-13.2-27.7-29.3c0-16.2,12.4-29.3,27.7-29.3s27.7,13.2,27.7,29.3
					C1878.4,696,1866,709.2,1850.7,709.2z M1850.7,655.2c-12.7,0-23,11-23,24.6c0,13.6,10.3,24.6,23,24.6s23-11,23-24.6
					C1873.7,666.2,1863.4,655.2,1850.7,655.2z"/>
			</g>
			<g>
				<path class="st24" d="M1906,701.6c-12.1,0-22-11.5-22-25.6c0-14.1,9.9-25.6,22-25.6s22,11.5,22,25.6
					C1927.9,690.2,1918.1,701.6,1906,701.6z M1906,655.2c-9.5,0-17.2,9.4-17.2,20.9c0,11.5,7.7,20.9,17.2,20.9s17.2-9.4,17.2-20.9
					C1923.2,664.6,1915.5,655.2,1906,655.2z"/>
			</g>
			<g>
				<rect x="1876" y="674.6" class="st24" width="10" height="5"/>
			</g>
			<g>
				
					<rect x="1801.3" y="645" transform="matrix(0.3927 -0.9197 0.9197 0.3927 480.4909 2064.8301)" class="st24" width="4.7" height="47.2"/>
			</g>
		</g>
		<path class="st6" d="M1601.3,949.8c0,0,11.8-71.3,48-79.1c36.2-7.9,92,20.1,95.9,79.1c3.9,59,1.2,182.4,1.2,182.4l168.6-44.8
			l25.2,130.5l-258.7,47.2c0,0-43.2,12.6-51.9-63.7C1621,1125.1,1601.3,949.8,1601.3,949.8z"/>
	</g>
	<g>
		<polyline class="st6" points="1632,704 1654.2,741.2 1596.8,724.3 		"/>
		<g>
			
				<ellipse transform="matrix(7.088932e-02 -0.9975 0.9975 7.088932e-02 795.2162 2166.6499)" class="st6" cx="1560.7" cy="656.5" rx="95.6" ry="95.6"/>
			<g>
				<path class="st40" d="M1610.4,609c-28.4-13.8-47.8,11.4-49.8,14.1c-2-2.7-21.4-27.9-49.8-14.1c-29.9,14.6-21.5,60.2,49.6,111.1
					c0,0,0.1,0.2,0.2,0.1c0,0,0.2-0.1,0.2-0.1C1632.3,668.7,1640.3,623.6,1610.4,609z"/>
				<g>
					<path class="st6" d="M1575.4,686.1c-0.1,0-0.3,0-0.4,0c-1.3-0.2-2.4-1.2-2.6-2.5l-8.3-50.5l-10.8,50.6
						c-0.3,1.4-1.5,2.4-2.9,2.4c-1.5-0.1-2.7-0.9-3-2.3l-9.1-37.2l-5.7,22c-0.4,1.4-1.6,2.3-3,2.3h-41.5c-1.7,0-3.1-1.4-3.1-3.1
						c0-1.7,1.4-3.1,3.1-3.1h39.1l8.1-31.5c0.4-1.4,1.6-2.3,3-2.3h0c1.4,0,2.6,1,3,2.4l8.8,36l11.4-53.4c0.3-1.4,1.6-2.5,3.1-2.4
						c1.5,0,2.7,1.1,3,2.6l9.3,56.6l7.8-17c0.5-1.1,1.6-1.8,2.8-1.8h45.8c1.7,0,3.1,1.4,3.1,3.1c0,1.7-1.4,3.1-3.1,3.1h-43.9
						l-11.2,24.4C1577.7,685.4,1576.6,686.1,1575.4,686.1z"/>
				</g>
			</g>
		</g>
	</g>
</g>
</svg>
