<svg width="100%" height="100%" id="svg" viewBox="0 0 1440 490"
  xmlns="http://www.w3.org/2000/svg" class="transition duration-300 ease-in-out delay-150">
  <defs>
    <linearGradient id="gradient" x1="0%" y1="50%" x2="100%" y2="50%">
      <stop offset="5%" stop-color="#F78DA7"></stop>
      <stop offset="95%" stop-color="#8ED1FC"></stop>
    </linearGradient>
  </defs>
  <path d="M 0,500 C 0,500 0,166 0,166 C 89.57894736842107,165.86602870813397 179.15789473684214,165.73205741626793 261,154 C 342.84210526315786,142.26794258373207 416.9473684210526,118.9377990430622 528,123 C 639.0526315789474,127.0622009569378 787.0526315789473,158.51674641148324 894,181 C 1000.9473684210527,203.48325358851676 1066.842105263158,216.9952153110048 1151,213 C 1235.157894736842,209.0047846889952 1337.578947368421,187.5023923444976 1440,166 C 1440,166 1440,500 1440,500 Z" stroke="none" stroke-width="0" fill="url(#gradient)" fill-opacity="0.53" class="transition-all duration-300 ease-in-out delay-150 path-0"></path>
  <defs>
    <linearGradient id="gradient" x1="0%" y1="50%" x2="100%" y2="50%">
      <stop offset="5%" stop-color="#F78DA7"></stop>
      <stop offset="95%" stop-color="#8ED1FC"></stop>
    </linearGradient>
  </defs>
  <path d="M 0,500 C 0,500 0,333 0,333 C 85.79904306220098,325.8421052631579 171.59808612440196,318.6842105263158 265,338 C 358.40191387559804,357.3157894736842 459.4066985645933,403.10526315789474 572,392 C 684.5933014354067,380.89473684210526 808.775119617225,312.8947368421053 914,312 C 1019.224880382775,311.1052631578947 1105.492822966507,377.3157894736842 1190,392 C 1274.507177033493,406.6842105263158 1357.2535885167465,369.8421052631579 1440,333 C 1440,333 1440,500 1440,500 Z" stroke="none" stroke-width="0" fill="url(#gradient)" fill-opacity="1" class="transition-all duration-300 ease-in-out delay-150 path-1"></path>
</svg>