<?xml version="1.0" encoding="UTF-8"?>
<!DOCTYPE svg PUBLIC "-//W3C//DTD SVG 1.1//EN" "http://www.w3.org/Graphics/SVG/1.1/DTD/svg11.dtd">
<svg xmlns="http://www.w3.org/2000/svg" version="1.1" width="512px" height="512px" style="shape-rendering:geometricPrecision; text-rendering:geometricPrecision; image-rendering:optimizeQuality; fill-rule:evenodd; clip-rule:evenodd" xmlns:xlink="http://www.w3.org/1999/xlink">
<g><path style="opacity:0.981" fill="#030302" d="M 511.5,292.5 C 511.5,301.833 511.5,311.167 511.5,320.5C 501.436,365.558 473.436,391.225 427.5,397.5C 428.092,410.283 427.258,422.95 425,435.5C 419.318,448.513 409.484,456.346 395.5,459C 273.833,459.667 152.167,459.667 30.5,459C 14.6906,455.797 4.35722,446.63 -0.5,431.5C -0.5,314.167 -0.5,196.833 -0.5,79.5C 4.35722,64.3701 14.6906,55.2035 30.5,52C 94.8333,51.3333 159.167,51.3333 223.5,52C 230.717,54.9719 232.883,60.1385 230,67.5C 219.041,85.2501 208.208,103.083 197.5,121C 205.5,121.333 213.5,121.667 221.5,122C 226.486,124.128 228.82,127.961 228.5,133.5C 227.756,138.858 227.256,144.191 227,149.5C 238.167,135.167 249.333,120.833 260.5,106.5C 257.036,105.146 253.87,103.146 251,100.5C 249.517,97.2976 249.183,93.9643 250,90.5C 255.512,77.9751 261.679,65.8085 268.5,54C 269.833,53.3333 271.167,52.6667 272.5,52C 293,51.8333 313.5,51.6667 334,51.5C 356.207,51.3604 378.374,51.8604 400.5,53C 416.057,58.248 424.89,69.0813 427,85.5C 427.5,128.832 427.667,172.165 427.5,215.5C 463.919,218.956 489.752,237.289 505,270.5C 507.719,277.81 509.886,285.143 511.5,292.5 Z"/></g>
<g><path style="opacity:1" fill="#fef19f" d="M 30.5,72.5 C 87.8343,72.3333 145.168,72.5 202.5,73C 192.125,90.2501 181.625,107.417 171,124.5C 166.624,131.899 168.124,137.733 175.5,142C 185.828,142.5 196.161,142.666 206.5,142.5C 204.334,158.494 202.501,174.494 201,190.5C 202.948,196.723 207.115,199.223 213.5,198C 218,194.833 221.833,191 225,186.5C 245.617,158.882 266.617,131.548 288,104.5C 291.042,97.9148 289.542,92.7481 283.5,89C 280.367,88.6075 277.367,87.7741 274.5,86.5C 276.706,81.9215 279.039,77.4215 281.5,73C 319.5,72.3333 357.5,72.3333 395.5,73C 400.667,74.8333 404.167,78.3333 406,83.5C 406.833,127.837 406.667,172.17 405.5,216.5C 372.181,223.651 349.015,242.984 336,274.5C 323.583,316.011 333.75,350.844 366.5,379C 378.492,387.72 391.825,393.22 406.5,395.5C 406.666,405.839 406.5,416.172 406,426.5C 404.257,431.91 400.757,435.744 395.5,438C 273.833,438.667 152.167,438.667 30.5,438C 25.6667,435.833 22.1667,432.333 20,427.5C 19.5001,414.838 19.3334,402.171 19.5,389.5C 101.834,389.667 184.167,389.5 266.5,389C 269.663,387.52 271.496,385.02 272,381.5C 272.667,333.5 272.667,285.5 272,237.5C 270.437,234.272 267.937,232.105 264.5,231C 182.834,230.5 101.167,230.333 19.5,230.5C 19.3333,181.499 19.5,132.499 20,83.5C 22.3566,78.6455 25.8566,74.9788 30.5,72.5 Z"/></g>
<g><path style="opacity:1" fill="#fd7c95" d="M 409.5,235.5 C 440.752,232.878 464.919,244.545 482,270.5C 499.04,306.047 492.873,336.881 463.5,363C 443.961,376.59 422.628,380.257 399.5,374C 364.106,359.4 347.939,332.9 351,294.5C 358.681,262.986 378.181,243.319 409.5,235.5 Z"/></g>
<g><path style="opacity:1" fill="#f8f5f3" d="M 19.5,250.5 C 97.1667,250.5 174.833,250.5 252.5,250.5C 252.5,290.167 252.5,329.833 252.5,369.5C 174.833,369.5 97.1667,369.5 19.5,369.5C 19.5,329.833 19.5,290.167 19.5,250.5 Z"/></g>
<g><path style="opacity:1" fill="#050404" d="M 45.5,279.5 C 54.8393,279.334 64.1726,279.5 73.5,280C 79.0248,282.919 80.8581,287.419 79,293.5C 77.7494,296.381 75.5827,298.214 72.5,299C 63.5,299.667 54.5,299.667 45.5,299C 39.8912,295.723 38.0578,290.89 40,284.5C 41.7297,282.598 43.563,280.931 45.5,279.5 Z"/></g>
<g><path style="opacity:1" fill="#0a0a09" d="M 111.5,279.5 C 122.777,278.755 126.943,283.755 124,294.5C 117.091,301.65 111.091,300.983 106,292.5C 104.571,286.7 106.404,282.367 111.5,279.5 Z"/></g>
<g><path style="opacity:1" fill="#040404" d="M 156.5,279.5 C 172.837,279.333 189.17,279.5 205.5,280C 211.169,282.815 213.002,287.315 211,293.5C 209.749,296.381 207.583,298.214 204.5,299C 188.833,299.667 173.167,299.667 157.5,299C 150.704,295.578 148.871,290.411 152,283.5C 153.397,281.93 154.897,280.596 156.5,279.5 Z"/></g>
<g><path style="opacity:1" fill="#030101" d="M 401.5,281.5 C 404.271,281.421 406.937,281.921 409.5,283C 413.333,286.833 417.167,290.667 421,294.5C 425.199,289.966 429.699,285.799 434.5,282C 445.474,281.764 449.307,286.931 446,297.5C 442.318,301.015 438.818,304.682 435.5,308.5C 439.519,312.685 443.353,317.018 447,321.5C 447.546,332.95 442.379,336.783 431.5,333C 428,329.5 424.5,326 421,322.5C 416.756,327.415 411.923,331.581 406.5,335C 397.357,335.183 393.524,330.683 395,321.5C 398.647,317.018 402.481,312.685 406.5,308.5C 402.481,304.315 398.647,299.982 395,295.5C 393.17,288.832 395.337,284.165 401.5,281.5 Z"/></g>
<g><path style="opacity:1" fill="#040303" d="M 45.5,321.5 C 85.8347,321.333 126.168,321.5 166.5,322C 171.071,323.24 173.404,326.24 173.5,331C 173.431,336.494 170.765,339.827 165.5,341C 125.5,341.667 85.5,341.667 45.5,341C 39.8912,337.723 38.0578,332.89 40,326.5C 41.7297,324.598 43.563,322.931 45.5,321.5 Z"/></g>
</svg>
