<?xml version="1.0" encoding="UTF-8"?>
<!DOCTYPE svg PUBLIC "-//W3C//DTD SVG 1.1//EN" "http://www.w3.org/Graphics/SVG/1.1/DTD/svg11.dtd">
<svg xmlns="http://www.w3.org/2000/svg" version="1.1" width="512px" height="512px" style="shape-rendering:geometricPrecision; text-rendering:geometricPrecision; image-rendering:optimizeQuality; fill-rule:evenodd; clip-rule:evenodd" xmlns:xlink="http://www.w3.org/1999/xlink">
<g><path style="opacity:1" fill="#dae1ea" d="M 140.5,-0.5 C 187.167,-0.5 233.833,-0.5 280.5,-0.5C 280.5,31.8333 280.5,64.1667 280.5,96.5C 279.506,105.652 279.173,114.985 279.5,124.5C 279.5,127.167 279.5,129.833 279.5,132.5C 233.167,132.5 186.833,132.5 140.5,132.5C 140.5,129.833 140.5,127.167 140.5,124.5C 140.5,115.167 140.5,105.833 140.5,96.5C 140.5,64.1667 140.5,31.8333 140.5,-0.5 Z"/></g>
<g><path style="opacity:1" fill="#bac2d3" d="M 160.5,24.5 C 193.502,24.3334 226.502,24.5 259.5,25C 262.167,27.3333 262.167,29.6667 259.5,32C 226.5,32.6667 193.5,32.6667 160.5,32C 157.914,29.506 157.914,27.006 160.5,24.5 Z"/></g>
<g><path style="opacity:1" fill="#bac2d3" d="M 160.5,58.5 C 193.502,58.3334 226.502,58.5 259.5,59C 261.673,60.8647 262.007,63.0314 260.5,65.5C 226.833,66.8333 193.167,66.8333 159.5,65.5C 158.073,62.8845 158.406,60.5511 160.5,58.5 Z"/></g>
<g><path style="opacity:1" fill="#bbc3d4" d="M 160.5,92.5 C 193.502,92.3334 226.502,92.5 259.5,93C 261.648,95.0749 261.982,97.4082 260.5,100C 226.833,100.667 193.167,100.667 159.5,100C 158.083,97.2565 158.416,94.7565 160.5,92.5 Z"/></g>
<g><path style="opacity:0.996" fill="#43567c" d="M 140.5,96.5 C 140.5,105.833 140.5,115.167 140.5,124.5C 130.097,123.576 126.597,128.242 130,138.5C 130.5,139 131,139.5 131.5,140C 183.833,140.667 236.167,140.667 288.5,140C 290.059,138.004 290.726,135.671 290.5,133C 290.758,125.437 287.091,122.604 279.5,124.5C 279.173,114.985 279.506,105.652 280.5,96.5C 293.894,96.0755 307.227,96.5755 320.5,98C 333.209,102.041 341.042,110.541 344,123.5C 344.5,147.498 344.667,171.498 344.5,195.5C 344.5,270.833 344.5,346.167 344.5,421.5C 344.957,443.886 344.457,466.22 343,488.5C 338.483,500.187 330.317,507.854 318.5,511.5C 246.167,511.5 173.833,511.5 101.5,511.5C 88.0855,507.25 79.5855,498.25 76,484.5C 75.3333,364.167 75.3333,243.833 76,123.5C 79.6041,108.896 88.7707,100.063 103.5,97C 115.829,96.5001 128.162,96.3335 140.5,96.5 Z"/></g>
<g><path style="opacity:1" fill="#333e5e" d="M 140.5,124.5 C 140.5,127.167 140.5,129.833 140.5,132.5C 186.833,132.5 233.167,132.5 279.5,132.5C 279.5,129.833 279.5,127.167 279.5,124.5C 287.091,122.604 290.758,125.437 290.5,133C 290.726,135.671 290.059,138.004 288.5,140C 236.167,140.667 183.833,140.667 131.5,140C 131,139.5 130.5,139 130,138.5C 126.597,128.242 130.097,123.576 140.5,124.5 Z"/></g>
<g><path style="opacity:1" fill="#6ab2d8" d="M 118.5,166.5 C 179.501,166.333 240.501,166.5 301.5,167C 304.057,167.685 305.891,169.185 307,171.5C 307.167,186.667 307.333,201.833 307.5,217C 307.652,232.922 307.152,248.756 306,264.5C 305.25,265.126 304.416,265.626 303.5,266C 272.333,266.167 241.167,266.333 210,266.5C 178.083,266.66 146.249,266.16 114.5,265C 113.874,264.25 113.374,263.416 113,262.5C 112.333,232.167 112.333,201.833 113,171.5C 114.352,169.251 116.185,167.584 118.5,166.5 Z"/></g>
<g><path style="opacity:0.995" fill="#ffc943" d="M 344.5,195.5 C 352.833,195.5 361.167,195.5 369.5,195.5C 369.5,270.833 369.5,346.167 369.5,421.5C 361.167,421.5 352.833,421.5 344.5,421.5C 344.5,346.167 344.5,270.833 344.5,195.5 Z"/></g>
<g><path style="opacity:0.986" fill="#ffc943" d="M 400.5,195.5 C 408.917,195.094 417.251,195.594 425.5,197C 430.144,199.641 433.311,203.475 435,208.5C 435.667,274.833 435.667,341.167 435,407.5C 433.564,413.87 429.731,418.037 423.5,420C 415.895,421.311 408.228,421.811 400.5,421.5C 400.5,346.167 400.5,270.833 400.5,195.5 Z"/></g>
<g><path style="opacity:1" fill="#6f706e" d="M 369.5,195.5 C 379.833,195.5 390.167,195.5 400.5,195.5C 400.5,270.833 400.5,346.167 400.5,421.5C 390.167,421.5 379.833,421.5 369.5,421.5C 369.5,346.167 369.5,270.833 369.5,195.5 Z"/></g>
<g><path style="opacity:1" fill="#43567c" d="M 370.5,196.5 C 380.167,196.5 389.833,196.5 399.5,196.5C 399.5,271.167 399.5,345.833 399.5,420.5C 389.833,420.5 380.167,420.5 370.5,420.5C 370.5,345.833 370.5,271.167 370.5,196.5 Z"/></g>
<g><path style="opacity:1" fill="#b9c1d2" d="M 115.5,295.5 C 125.172,295.334 134.839,295.5 144.5,296C 145.416,296.374 146.25,296.874 147,297.5C 148.613,307.066 148.947,316.733 148,326.5C 147.535,327.931 146.701,329.097 145.5,330C 140.442,331.116 135.275,331.616 130,331.5C 125.5,331.333 121,331.167 116.5,331C 115.584,330.626 114.75,330.126 114,329.5C 112.383,319.266 112.05,308.933 113,298.5C 114.045,297.627 114.878,296.627 115.5,295.5 Z"/></g>
<g><path style="opacity:1" fill="#b9c1d2" d="M 168.5,295.5 C 178.172,295.334 187.839,295.5 197.5,296C 198.416,296.374 199.25,296.874 200,297.5C 201.615,307.4 201.949,317.4 201,327.5C 200.167,328.333 199.333,329.167 198.5,330C 193.442,331.116 188.275,331.616 183,331.5C 178.5,331.333 174,331.167 169.5,331C 168.584,330.626 167.75,330.126 167,329.5C 165.383,319.266 165.05,308.933 166,298.5C 167.045,297.627 167.878,296.627 168.5,295.5 Z"/></g>
<g><path style="opacity:1" fill="#b9c1d2" d="M 221.5,295.5 C 231.506,295.334 241.506,295.5 251.5,296C 252.333,296.833 253.167,297.667 254,298.5C 254.667,308.167 254.667,317.833 254,327.5C 253.626,328.416 253.126,329.25 252.5,330C 242.6,331.615 232.6,331.949 222.5,331C 221.333,329.833 220.167,328.667 219,327.5C 218.333,318.167 218.333,308.833 219,299.5C 219.662,298.016 220.496,296.683 221.5,295.5 Z"/></g>
<g><path style="opacity:1" fill="#b9c1d2" d="M 275.5,295.5 C 285.172,295.334 294.839,295.5 304.5,296C 305.333,296.833 306.167,297.667 307,298.5C 307.667,308.167 307.667,317.833 307,327.5C 306.626,328.416 306.126,329.25 305.5,330C 295.6,331.615 285.6,331.949 275.5,331C 274.667,330.167 273.833,329.333 273,328.5C 271.387,318.934 271.053,309.267 272,299.5C 272.69,297.65 273.856,296.316 275.5,295.5 Z"/></g>
<g><path style="opacity:1" fill="#b7bfd1" d="M 116.5,348.5 C 125.506,348.334 134.506,348.5 143.5,349C 145.286,349.785 146.786,350.951 148,352.5C 148.667,361.833 148.667,371.167 148,380.5C 147.535,381.931 146.701,383.097 145.5,384C 135.934,385.613 126.267,385.947 116.5,385C 115.333,383.833 114.167,382.667 113,381.5C 112.333,371.833 112.333,362.167 113,352.5C 114.102,351.051 115.269,349.718 116.5,348.5 Z"/></g>
<g><path style="opacity:1" fill="#b8c0d1" d="M 169.5,348.5 C 178.506,348.334 187.506,348.5 196.5,349C 198.286,349.785 199.786,350.951 201,352.5C 201.667,361.833 201.667,371.167 201,380.5C 200.535,381.931 199.701,383.097 198.5,384C 189.268,385.611 179.935,385.945 170.5,385C 168.714,384.215 167.214,383.049 166,381.5C 165.333,371.833 165.333,362.167 166,352.5C 167.376,351.295 168.542,349.962 169.5,348.5 Z"/></g>
<g><path style="opacity:1" fill="#b8c0d1" d="M 223.5,348.5 C 232.173,348.334 240.84,348.5 249.5,349C 251.286,349.785 252.786,350.951 254,352.5C 254.667,362.167 254.667,371.833 254,381.5C 253.167,382.333 252.333,383.167 251.5,384C 242.268,385.611 232.935,385.945 223.5,385C 222.069,384.535 220.903,383.701 220,382.5C 218.385,372.6 218.051,362.6 219,352.5C 220.397,350.93 221.897,349.596 223.5,348.5 Z"/></g>
<g><path style="opacity:1" fill="#b7bfd1" d="M 276.5,348.5 C 285.173,348.334 293.84,348.5 302.5,349C 304.002,349.583 305.335,350.416 306.5,351.5C 307.641,361.453 307.808,371.453 307,381.5C 306.167,382.333 305.333,383.167 304.5,384C 295.268,385.611 285.935,385.945 276.5,385C 275.069,384.535 273.903,383.701 273,382.5C 271.387,372.934 271.053,363.267 272,353.5C 273.025,351.313 274.525,349.646 276.5,348.5 Z"/></g>
<g><path style="opacity:1" fill="#b9c1d2" d="M 116.5,402.5 C 125.839,402.334 135.173,402.5 144.5,403C 145.667,404.167 146.833,405.333 148,406.5C 148.667,415.833 148.667,425.167 148,434.5C 146.833,435.667 145.667,436.833 144.5,438C 134.833,438.667 125.167,438.667 115.5,438C 114.667,437.167 113.833,436.333 113,435.5C 112.333,425.5 112.333,415.5 113,405.5C 114.145,404.364 115.312,403.364 116.5,402.5 Z"/></g>
<g><path style="opacity:1" fill="#b9c1d2" d="M 169.5,402.5 C 178.839,402.334 188.173,402.5 197.5,403C 198.667,404.167 199.833,405.333 201,406.5C 201.667,415.833 201.667,425.167 201,434.5C 200.626,435.416 200.126,436.25 199.5,437C 194.107,438.12 188.607,438.62 183,438.5C 178.167,438.333 173.333,438.167 168.5,438C 168,437.5 167.5,437 167,436.5C 165.385,426.6 165.051,416.6 166,406.5C 166.69,404.65 167.856,403.316 169.5,402.5 Z"/></g>
<g><path style="opacity:1" fill="#b9c1d2" d="M 222.5,402.5 C 231.839,402.334 241.173,402.5 250.5,403C 251.416,403.374 252.25,403.874 253,404.5C 254.118,409.726 254.618,415.059 254.5,420.5C 258.167,436.167 252.167,442.167 236.5,438.5C 231.833,438.333 227.167,438.167 222.5,438C 221.584,437.626 220.75,437.126 220,436.5C 218.385,426.6 218.051,416.6 219,406.5C 220.376,405.295 221.542,403.962 222.5,402.5 Z"/></g>
<g><path style="opacity:1" fill="#b9c1d2" d="M 275.5,402.5 C 284.839,402.334 294.173,402.5 303.5,403C 304.931,403.465 306.097,404.299 307,405.5C 307.667,415.5 307.667,425.5 307,435.5C 306.167,436.333 305.333,437.167 304.5,438C 294.833,438.667 285.167,438.667 275.5,438C 274,437.167 272.833,436 272,434.5C 271.333,425.167 271.333,415.833 272,406.5C 273.376,405.295 274.542,403.962 275.5,402.5 Z"/></g>
<g><path style="opacity:1" fill="#ed5361" d="M 114.5,458.5 C 125.603,458.046 136.603,458.546 147.5,460C 148.639,465.416 148.806,470.916 148,476.5C 147.5,477 147,477.5 146.5,478C 135.833,478.667 125.167,478.667 114.5,478C 114,477.5 113.5,477 113,476.5C 112.333,471.167 112.333,465.833 113,460.5C 113.717,459.956 114.217,459.289 114.5,458.5 Z"/></g>
<g><path style="opacity:1" fill="#8bceb4" d="M 167.5,458.5 C 178.172,458.333 188.839,458.5 199.5,459C 200,459.5 200.5,460 201,460.5C 201.667,465.833 201.667,471.167 201,476.5C 200.5,477 200,477.5 199.5,478C 188.833,478.667 178.167,478.667 167.5,478C 167,477.5 166.5,477 166,476.5C 165.333,471.167 165.333,465.833 166,460.5C 166.717,459.956 167.217,459.289 167.5,458.5 Z"/></g>
<g><path style="opacity:1" fill="#6ab2d8" d="M 220.5,458.5 C 231.172,458.333 241.839,458.5 252.5,459C 253,459.5 253.5,460 254,460.5C 254.667,465.833 254.667,471.167 254,476.5C 253.5,477 253,477.5 252.5,478C 241.833,478.667 231.167,478.667 220.5,478C 220,477.5 219.5,477 219,476.5C 218.333,471.167 218.333,465.833 219,460.5C 219.717,459.956 220.217,459.289 220.5,458.5 Z"/></g>
<g><path style="opacity:1" fill="#fdc743" d="M 273.5,458.5 C 284.172,458.333 294.839,458.5 305.5,459C 306,459.5 306.5,460 307,460.5C 307.667,465.833 307.667,471.167 307,476.5C 306.5,477 306,477.5 305.5,478C 294.833,478.667 284.167,478.667 273.5,478C 273,477.5 272.5,477 272,476.5C 271.333,471.167 271.333,465.833 272,460.5C 272.717,459.956 273.217,459.289 273.5,458.5 Z"/></g>
</svg>
