<?xml version="1.0" encoding="UTF-8"?>
<!DOCTYPE svg PUBLIC "-//W3C//DTD SVG 1.1//EN" "http://www.w3.org/Graphics/SVG/1.1/DTD/svg11.dtd">
<svg xmlns="http://www.w3.org/2000/svg" version="1.1" width="512px" height="512px" style="shape-rendering:geometricPrecision; text-rendering:geometricPrecision; image-rendering:optimizeQuality; fill-rule:evenodd; clip-rule:evenodd" xmlns:xlink="http://www.w3.org/1999/xlink">
<g><path style="opacity:0.999" fill="#000000" d="M 11.5,7.5 C 121.581,7.0042 231.581,7.5042 341.5,9C 342.126,9.75044 342.626,10.5838 343,11.5C 343.5,79.4992 343.667,147.499 343.5,215.5C 379.502,215.333 415.502,215.5 451.5,216C 452.416,216.374 453.25,216.874 454,217.5C 455.489,259.415 455.989,301.415 455.5,343.5C 470.17,343.333 484.837,343.5 499.5,344C 501.333,344.5 502.5,345.667 503,347.5C 503.667,398.167 503.667,448.833 503,499.5C 502.5,501.333 501.333,502.5 499.5,503C 379.5,503.667 259.5,503.667 139.5,503C 137.667,502.5 136.5,501.333 136,499.5C 135.5,479.503 135.333,459.503 135.5,439.5C 94.1653,439.667 52.832,439.5 11.5,439C 9.66667,438.5 8.5,437.333 8,435.5C 7.33333,294.167 7.33333,152.833 8,11.5C 8.68972,9.64977 9.85639,8.31643 11.5,7.5 Z"/></g>
<g><path style="opacity:1" fill="#eaf6fd" d="M 291.5,23.5 C 293.808,34.0238 294.808,44.6905 294.5,55.5C 241.5,55.5 188.5,55.5 135.5,55.5C 135.5,60.8333 135.5,66.1667 135.5,71.5C 188.833,71.5 242.167,71.5 295.5,71.5C 295.5,76.8333 295.5,82.1667 295.5,87.5C 242.167,87.5 188.833,87.5 135.5,87.5C 135.5,92.8333 135.5,98.1667 135.5,103.5C 188.167,103.5 240.833,103.5 293.5,103.5C 292.754,111.89 291.587,120.223 290,128.5C 287.691,136.068 285.858,143.734 284.5,151.5C 234.833,151.5 185.167,151.5 135.5,151.5C 135.5,156.833 135.5,162.167 135.5,167.5C 183.167,167.5 230.833,167.5 278.5,167.5C 276.695,172.916 274.695,178.249 272.5,183.5C 226.833,183.5 181.167,183.5 135.5,183.5C 135.5,188.833 135.5,194.167 135.5,199.5C 178.5,199.5 221.5,199.5 264.5,199.5C 256.013,216.481 246.013,232.481 234.5,247.5C 201.5,247.5 168.5,247.5 135.5,247.5C 135.5,252.833 135.5,258.167 135.5,263.5C 163.5,263.5 191.5,263.5 219.5,263.5C 215.177,269.489 210.177,274.822 204.5,279.5C 181.5,279.5 158.5,279.5 135.5,279.5C 135.5,284.833 135.5,290.167 135.5,295.5C 151.833,295.5 168.167,295.5 184.5,295.5C 164.919,311.135 143.252,323.468 119.5,332.5C 118.254,330.099 116.254,328.599 113.5,328C 90.5,327.333 67.5,327.333 44.5,328C 42.3333,328.833 40.8333,330.333 40,332.5C 39.5005,338.825 39.3338,345.158 39.5,351.5C 34.1667,351.5 28.8333,351.5 23.5,351.5C 23.5,242.167 23.5,132.833 23.5,23.5C 112.833,23.5 202.167,23.5 291.5,23.5 Z"/></g>
<g><path style="opacity:1" fill="#c7e2fa" d="M 291.5,23.5 C 303.5,23.5 315.5,23.5 327.5,23.5C 327.5,87.5 327.5,151.5 327.5,215.5C 312.403,215.033 297.403,215.533 282.5,217C 281.299,217.903 280.465,219.069 280,220.5C 279.5,229.494 279.334,238.494 279.5,247.5C 264.5,247.5 249.5,247.5 234.5,247.5C 246.013,232.481 256.013,216.481 264.5,199.5C 280.167,199.5 295.833,199.5 311.5,199.5C 311.5,194.167 311.5,188.833 311.5,183.5C 298.5,183.5 285.5,183.5 272.5,183.5C 274.695,178.249 276.695,172.916 278.5,167.5C 289.5,167.5 300.5,167.5 311.5,167.5C 311.5,162.167 311.5,156.833 311.5,151.5C 302.5,151.5 293.5,151.5 284.5,151.5C 285.858,143.734 287.691,136.068 290,128.5C 291.587,120.223 292.754,111.89 293.5,103.5C 299.5,103.5 305.5,103.5 311.5,103.5C 311.5,98.1667 311.5,92.8333 311.5,87.5C 306.167,87.5 300.833,87.5 295.5,87.5C 295.5,82.1667 295.5,76.8333 295.5,71.5C 300.833,71.5 306.167,71.5 311.5,71.5C 311.5,66.1667 311.5,60.8333 311.5,55.5C 305.833,55.5 300.167,55.5 294.5,55.5C 294.808,44.6905 293.808,34.0238 291.5,23.5 Z"/></g>
<g><path style="opacity:1" fill="#010102" d="M 120.5,26.5 C 125.527,28.6848 129.527,32.1848 132.5,37C 128.714,41.7887 124.547,46.2887 120,50.5C 119.968,72.5636 119.301,94.5636 118,116.5C 116.829,117.893 115.329,118.727 113.5,119C 89.7454,119.979 66.0788,119.646 42.5,118C 41.1068,116.829 40.2735,115.329 40,113.5C 39.0206,89.7454 39.354,66.0788 41,42.5C 41.9025,41.2986 43.0692,40.4652 44.5,40C 65.8333,39.6667 87.1667,39.3333 108.5,39C 112.704,34.9644 116.704,30.7978 120.5,26.5 Z"/></g>
<g><path style="opacity:1" fill="#4371af" d="M 55.5,55.5 C 67.5046,55.3335 79.5046,55.5001 91.5,56C 79.6667,67.8333 67.8333,79.6667 56,91.5C 55.5001,79.5046 55.3335,67.5046 55.5,55.5 Z"/></g>
<g><path style="opacity:1" fill="#000000" d="M 294.5,55.5 C 300.167,55.5 305.833,55.5 311.5,55.5C 311.5,60.8333 311.5,66.1667 311.5,71.5C 306.167,71.5 300.833,71.5 295.5,71.5C 242.167,71.5 188.833,71.5 135.5,71.5C 135.5,66.1667 135.5,60.8333 135.5,55.5C 188.5,55.5 241.5,55.5 294.5,55.5 Z"/></g>
<g><path style="opacity:1" fill="#4371af" d="M 102.5,67.5 C 103.495,79.3217 103.828,91.3217 103.5,103.5C 91.4954,103.667 79.4954,103.5 67.5,103C 79.3687,91.2985 91.0354,79.4651 102.5,67.5 Z"/></g>
<g><path style="opacity:1" fill="#000000" d="M 295.5,87.5 C 300.833,87.5 306.167,87.5 311.5,87.5C 311.5,92.8333 311.5,98.1667 311.5,103.5C 305.5,103.5 299.5,103.5 293.5,103.5C 240.833,103.5 188.167,103.5 135.5,103.5C 135.5,98.1667 135.5,92.8333 135.5,87.5C 188.833,87.5 242.167,87.5 295.5,87.5 Z"/></g>
<g><path style="opacity:1" fill="#000000" d="M 44.5,135.5 C 67.5024,135.333 90.5024,135.5 113.5,136C 115.329,136.273 116.829,137.107 118,138.5C 119.646,162.079 119.979,185.745 119,209.5C 118.727,211.329 117.893,212.829 116.5,214C 92.5631,215.637 68.5631,215.97 44.5,215C 43.0692,214.535 41.9025,213.701 41,212.5C 39.3633,188.563 39.0299,164.563 40,140.5C 41.025,138.313 42.525,136.646 44.5,135.5 Z"/></g>
<g><path style="opacity:1" fill="#4472b0" d="M 55.5,151.5 C 71.5,151.5 87.5,151.5 103.5,151.5C 103.5,167.5 103.5,183.5 103.5,199.5C 87.5,199.5 71.5,199.5 55.5,199.5C 55.5,183.5 55.5,167.5 55.5,151.5 Z"/></g>
<g><path style="opacity:1" fill="#000000" d="M 284.5,151.5 C 293.5,151.5 302.5,151.5 311.5,151.5C 311.5,156.833 311.5,162.167 311.5,167.5C 300.5,167.5 289.5,167.5 278.5,167.5C 230.833,167.5 183.167,167.5 135.5,167.5C 135.5,162.167 135.5,156.833 135.5,151.5C 185.167,151.5 234.833,151.5 284.5,151.5 Z"/></g>
<g><path style="opacity:1" fill="#000000" d="M 272.5,183.5 C 285.5,183.5 298.5,183.5 311.5,183.5C 311.5,188.833 311.5,194.167 311.5,199.5C 295.833,199.5 280.167,199.5 264.5,199.5C 221.5,199.5 178.5,199.5 135.5,199.5C 135.5,194.167 135.5,188.833 135.5,183.5C 181.167,183.5 226.833,183.5 272.5,183.5 Z"/></g>
<g><path style="opacity:1" fill="#010102" d="M 120.5,218.5 C 125.527,220.685 129.527,224.185 132.5,229C 128.714,233.789 124.547,238.289 120,242.5C 119.968,264.564 119.301,286.564 118,308.5C 116.829,309.893 115.329,310.727 113.5,311C 89.7454,311.979 66.0788,311.646 42.5,310C 41.1068,308.829 40.2735,307.329 40,305.5C 39.0206,281.745 39.354,258.079 41,234.5C 41.9025,233.299 43.0692,232.465 44.5,232C 65.8333,231.667 87.1667,231.333 108.5,231C 112.704,226.964 116.704,222.798 120.5,218.5 Z"/></g>
<g><path style="opacity:1" fill="#cca47c" d="M 438.5,231.5 C 416.951,287.474 376.284,319.308 316.5,327C 309.508,327.5 302.508,327.666 295.5,327.5C 295.5,295.5 295.5,263.5 295.5,231.5C 311.5,231.5 327.5,231.5 343.5,231.5C 343.049,246.572 343.549,261.572 345,276.5C 345.903,277.701 347.069,278.535 348.5,279C 360.833,279.667 373.167,279.667 385.5,279C 387.329,278.727 388.829,277.893 390,276.5C 391.451,261.572 391.951,246.572 391.5,231.5C 407.167,231.5 422.833,231.5 438.5,231.5 Z"/></g>
<g><path style="opacity:1" fill="#fefffe" d="M 359.5,231.5 C 364.833,231.5 370.167,231.5 375.5,231.5C 375.5,242.167 375.5,252.833 375.5,263.5C 370.167,263.5 364.833,263.5 359.5,263.5C 359.5,252.833 359.5,242.167 359.5,231.5 Z"/></g>
<g><path style="opacity:1" fill="#c18e5c" d="M 438.5,231.5 C 439.498,268.663 439.832,305.996 439.5,343.5C 391.5,343.5 343.5,343.5 295.5,343.5C 295.5,338.167 295.5,332.833 295.5,327.5C 302.508,327.666 309.508,327.5 316.5,327C 376.284,319.308 416.951,287.474 438.5,231.5 Z"/></g>
<g><path style="opacity:1" fill="#4371af" d="M 55.5,247.5 C 67.5046,247.333 79.5046,247.5 91.5,248C 79.6667,259.833 67.8333,271.667 56,283.5C 55.5001,271.505 55.3335,259.505 55.5,247.5 Z"/></g>
<g><path style="opacity:1" fill="#4371af" d="M 102.5,259.5 C 103.495,271.322 103.828,283.322 103.5,295.5C 91.4954,295.667 79.4954,295.5 67.5,295C 79.3687,283.298 91.0354,271.465 102.5,259.5 Z"/></g>
<g><path style="opacity:1" fill="#c7e2fb" d="M 219.5,263.5 C 239.5,263.5 259.5,263.5 279.5,263.5C 279.5,268.833 279.5,274.167 279.5,279.5C 254.5,279.5 229.5,279.5 204.5,279.5C 210.177,274.822 215.177,269.489 219.5,263.5 Z"/></g>
<g><path style="opacity:1" fill="#c6e1fa" d="M 184.5,295.5 C 216.167,295.5 247.833,295.5 279.5,295.5C 279.5,311.5 279.5,327.5 279.5,343.5C 232.415,343.01 185.415,343.51 138.5,345C 137.299,345.903 136.465,347.069 136,348.5C 135.5,373.498 135.333,398.498 135.5,423.5C 98.1667,423.5 60.8333,423.5 23.5,423.5C 23.5,399.5 23.5,375.5 23.5,351.5C 28.8333,351.5 34.1667,351.5 39.5,351.5C 39.3334,368.17 39.5001,384.837 40,401.5C 40.2735,403.329 41.1068,404.829 42.5,406C 66.0788,407.646 89.7454,407.979 113.5,407C 116.667,406.5 118.5,404.667 119,401.5C 119.5,378.502 119.667,355.502 119.5,332.5C 143.252,323.468 164.919,311.135 184.5,295.5 Z"/></g>
<g><path style="opacity:1" fill="#000000" d="M 391.5,311.5 C 402.167,311.5 412.833,311.5 423.5,311.5C 423.5,316.833 423.5,322.167 423.5,327.5C 412.833,327.5 402.167,327.5 391.5,327.5C 391.5,322.167 391.5,316.833 391.5,311.5 Z"/></g>
<g><path style="opacity:1" fill="#000000" d="M 119.5,332.5 C 119.667,355.502 119.5,378.502 119,401.5C 118.5,404.667 116.667,406.5 113.5,407C 89.7454,407.979 66.0788,407.646 42.5,406C 41.1068,404.829 40.2735,403.329 40,401.5C 39.5001,384.837 39.3334,368.17 39.5,351.5C 39.3338,345.158 39.5005,338.825 40,332.5C 40.8333,330.333 42.3333,328.833 44.5,328C 67.5,327.333 90.5,327.333 113.5,328C 116.254,328.599 118.254,330.099 119.5,332.5 Z"/></g>
<g><path style="opacity:1" fill="#4472b0" d="M 55.5,343.5 C 71.5,343.5 87.5,343.5 103.5,343.5C 103.5,359.5 103.5,375.5 103.5,391.5C 87.5,391.5 71.5,391.5 55.5,391.5C 55.5,375.5 55.5,359.5 55.5,343.5 Z"/></g>
<g><path style="opacity:1" fill="#cca47c" d="M 298.5,359.5 C 277.57,405.929 243.57,439.095 196.5,459C 182.081,465.069 167.081,468.569 151.5,469.5C 151.5,432.833 151.5,396.167 151.5,359.5C 167.5,359.5 183.5,359.5 199.5,359.5C 199.049,374.572 199.549,389.572 201,404.5C 201.903,405.701 203.069,406.535 204.5,407C 222.167,407.667 239.833,407.667 257.5,407C 259.329,406.727 260.829,405.893 262,404.5C 263.451,389.572 263.951,374.572 263.5,359.5C 275.167,359.5 286.833,359.5 298.5,359.5 Z"/></g>
<g><path style="opacity:1" fill="#fefffe" d="M 215.5,359.5 C 226.167,359.5 236.833,359.5 247.5,359.5C 247.5,370.167 247.5,380.833 247.5,391.5C 236.833,391.5 226.167,391.5 215.5,391.5C 215.5,380.833 215.5,370.167 215.5,359.5 Z"/></g>
<g><path style="opacity:1" fill="#c18e5c" d="M 298.5,359.5 C 302.833,359.5 307.167,359.5 311.5,359.5C 311.5,402.167 311.5,444.833 311.5,487.5C 258.167,487.5 204.833,487.5 151.5,487.5C 151.5,481.5 151.5,475.5 151.5,469.5C 167.081,468.569 182.081,465.069 196.5,459C 243.57,439.095 277.57,405.929 298.5,359.5 Z"/></g>
<g><path style="opacity:1" fill="#cca47c" d="M 474.5,359.5 C 453.57,405.929 419.57,439.095 372.5,459C 358.081,465.069 343.081,468.569 327.5,469.5C 327.5,432.833 327.5,396.167 327.5,359.5C 343.5,359.5 359.5,359.5 375.5,359.5C 375.049,374.572 375.549,389.572 377,404.5C 377.903,405.701 379.069,406.535 380.5,407C 398.167,407.667 415.833,407.667 433.5,407C 435.329,406.727 436.829,405.893 438,404.5C 439.451,389.572 439.951,374.572 439.5,359.5C 451.167,359.5 462.833,359.5 474.5,359.5 Z"/></g>
<g><path style="opacity:1" fill="#fefffe" d="M 391.5,359.5 C 402.167,359.5 412.833,359.5 423.5,359.5C 423.5,370.167 423.5,380.833 423.5,391.5C 412.833,391.5 402.167,391.5 391.5,391.5C 391.5,380.833 391.5,370.167 391.5,359.5 Z"/></g>
<g><path style="opacity:1" fill="#c18e5c" d="M 474.5,359.5 C 478.833,359.5 483.167,359.5 487.5,359.5C 487.5,402.167 487.5,444.833 487.5,487.5C 434.167,487.5 380.833,487.5 327.5,487.5C 327.5,481.5 327.5,475.5 327.5,469.5C 343.081,468.569 358.081,465.069 372.5,459C 419.57,439.095 453.57,405.929 474.5,359.5 Z"/></g>
<g><path style="opacity:1" fill="#000000" d="M 263.5,423.5 C 274.167,423.5 284.833,423.5 295.5,423.5C 295.5,428.833 295.5,434.167 295.5,439.5C 284.833,439.5 274.167,439.5 263.5,439.5C 263.5,434.167 263.5,428.833 263.5,423.5 Z"/></g>
<g><path style="opacity:1" fill="#000000" d="M 439.5,423.5 C 450.167,423.5 460.833,423.5 471.5,423.5C 471.5,428.833 471.5,434.167 471.5,439.5C 460.833,439.5 450.167,439.5 439.5,439.5C 439.5,434.167 439.5,428.833 439.5,423.5 Z"/></g>
<g><path style="opacity:1" fill="#000000" d="M 263.5,455.5 C 274.167,455.5 284.833,455.5 295.5,455.5C 295.5,460.833 295.5,466.167 295.5,471.5C 284.833,471.5 274.167,471.5 263.5,471.5C 263.5,466.167 263.5,460.833 263.5,455.5 Z"/></g>
<g><path style="opacity:1" fill="#000000" d="M 439.5,455.5 C 450.167,455.5 460.833,455.5 471.5,455.5C 471.5,460.833 471.5,466.167 471.5,471.5C 460.833,471.5 450.167,471.5 439.5,471.5C 439.5,466.167 439.5,460.833 439.5,455.5 Z"/></g>
</svg>
