<?xml version="1.0" encoding="UTF-8"?>
<!DOCTYPE svg PUBLIC "-//W3C//DTD SVG 1.1//EN" "http://www.w3.org/Graphics/SVG/1.1/DTD/svg11.dtd">
<svg xmlns="http://www.w3.org/2000/svg" version="1.1" width="512px" height="512px" style="shape-rendering:geometricPrecision; text-rendering:geometricPrecision; image-rendering:optimizeQuality; fill-rule:evenodd; clip-rule:evenodd" xmlns:xlink="http://www.w3.org/1999/xlink">
<g><path style="opacity:0.988" fill="#000000" d="M 379.5,7.5 C 384.618,6.889 389.285,8.05566 393.5,11C 428.337,31.2529 463.337,51.2529 498.5,71C 500.57,71.9476 502.07,73.4476 503,75.5C 503.993,140.249 503.659,204.915 502,269.5C 501.25,270.126 500.416,270.626 499.5,271C 480.833,271.667 462.167,271.667 443.5,271C 442.584,270.626 441.75,270.126 441,269.5C 439.512,230.252 439.012,190.919 439.5,151.5C 402.167,151.5 364.833,151.5 327.5,151.5C 327.988,190.919 327.488,230.252 326,269.5C 325.25,270.126 324.416,270.626 323.5,271C 304.833,271.667 286.167,271.667 267.5,271C 266.584,270.626 265.75,270.126 265,269.5C 263.341,204.915 263.007,140.249 264,75.5C 264.93,73.4476 266.43,71.9476 268.5,71C 305.668,49.9697 342.668,28.8031 379.5,7.5 Z"/></g>
<g><path style="opacity:1" fill="#577298" d="M 382.5,24.5 C 417.132,44.1109 451.799,63.7776 486.5,83.5C 487.5,140.829 487.833,198.163 487.5,255.5C 476.833,255.5 466.167,255.5 455.5,255.5C 455.988,216.414 455.488,177.414 454,138.5C 452.829,137.107 451.329,136.273 449.5,136C 405.167,135.333 360.833,135.333 316.5,136C 315.069,136.465 313.903,137.299 313,138.5C 311.512,177.414 311.012,216.414 311.5,255.5C 300.833,255.5 290.167,255.5 279.5,255.5C 279.167,198.163 279.5,140.829 280.5,83.5C 314.89,64.3117 348.89,44.645 382.5,24.5 Z"/></g>
<g><path style="opacity:1" fill="#000000" d="M 359.5,63.5 C 375.5,63.5 391.5,63.5 407.5,63.5C 407.5,68.8333 407.5,74.1667 407.5,79.5C 391.5,79.5 375.5,79.5 359.5,79.5C 359.5,74.1667 359.5,68.8333 359.5,63.5 Z"/></g>
<g><path style="opacity:1" fill="#000000" d="M 319.5,95.5 C 362.167,95.5 404.833,95.5 447.5,95.5C 447.5,100.833 447.5,106.167 447.5,111.5C 404.833,111.5 362.167,111.5 319.5,111.5C 319.5,106.167 319.5,100.833 319.5,95.5 Z"/></g>
<g><path style="opacity:0.995" fill="#000000" d="M 379.5,167.5 C 395.503,167.333 411.503,167.5 427.5,168C 428.416,168.374 429.25,168.874 430,169.5C 431.651,199.414 431.984,229.414 431,259.5C 430.5,261.333 429.333,262.5 427.5,263C 397.414,263.984 367.414,263.651 337.5,262C 336.874,261.25 336.374,260.416 336,259.5C 335.833,251.5 335.667,243.5 335.5,235.5C 335.361,226.736 335.861,218.07 337,209.5C 337.75,208.874 338.584,208.374 339.5,208C 351.495,207.5 363.495,207.333 375.5,207.5C 375.333,195.495 375.5,183.495 376,171.5C 376.69,169.65 377.856,168.316 379.5,167.5 Z"/></g>
<g><path style="opacity:1" fill="#eac969" d="M 391.5,183.5 C 399.5,183.5 407.5,183.5 415.5,183.5C 415.5,191.5 415.5,199.5 415.5,207.5C 407.5,207.5 399.5,207.5 391.5,207.5C 391.5,199.5 391.5,191.5 391.5,183.5 Z"/></g>
<g><path style="opacity:0.987" fill="#000000" d="M 77.5,214.5 C 103.571,215.442 120.071,228.442 127,253.5C 129.933,269.611 126.099,283.778 115.5,296C 144.653,307.113 156.653,328.28 151.5,359.5C 177.502,359.333 203.502,359.5 229.5,360C 234,361.833 237.167,365 239,369.5C 239.667,410.833 239.667,452.167 239,493.5C 237.167,498 234,501.167 229.5,503C 188.167,503.667 146.833,503.667 105.5,503C 101,501.167 97.8333,498 96,493.5C 95.5002,483.506 95.3335,473.506 95.5,463.5C 67.498,463.667 39.498,463.5 11.5,463C 9.66667,462.5 8.5,461.333 8,459.5C 7.02154,416.121 7.35487,372.787 9,329.5C 14.9014,312.599 26.4014,301.432 43.5,296C 32.9008,283.778 29.0675,269.611 32,253.5C 38.4695,230.188 53.6362,217.188 77.5,214.5 Z"/></g>
<g><path style="opacity:1" fill="#e5b42a" d="M 351.5,223.5 C 359.5,223.5 367.5,223.5 375.5,223.5C 375.5,231.5 375.5,239.5 375.5,247.5C 367.5,247.5 359.5,247.5 351.5,247.5C 351.5,239.5 351.5,231.5 351.5,223.5 Z"/></g>
<g><path style="opacity:1" fill="#be9624" d="M 391.5,223.5 C 399.5,223.5 407.5,223.5 415.5,223.5C 415.5,231.5 415.5,239.5 415.5,247.5C 407.5,247.5 399.5,247.5 391.5,247.5C 391.5,239.5 391.5,231.5 391.5,223.5 Z"/></g>
<g><path style="opacity:1" fill="#789ed3" d="M 72.5,231.5 C 98.357,230.526 111.19,242.86 111,268.5C 105.831,288.32 92.9975,297.153 72.5,295C 54.1228,288.76 45.9561,275.926 48,256.5C 51.6829,243.651 59.8496,235.318 72.5,231.5 Z"/></g>
<g><path style="opacity:0.977" fill="#000000" d="M 379.5,279.5 C 382.978,279.184 386.312,279.684 389.5,281C 405.667,299.833 421.833,318.667 438,337.5C 440.109,341.781 439.942,345.948 437.5,350C 430.281,351.429 422.947,351.929 415.5,351.5C 415.667,371.503 415.5,391.503 415,411.5C 407.833,444 388,463.833 355.5,471C 326.167,471.667 296.833,471.667 267.5,471C 266.584,470.626 265.75,470.126 265,469.5C 263.359,450.257 263.025,430.923 264,411.5C 264.5,409.667 265.667,408.5 267.5,408C 287.5,407.667 307.5,407.333 327.5,407C 338.795,406.037 346.295,400.204 350,389.5C 351.374,376.88 351.874,364.213 351.5,351.5C 344.053,351.929 336.719,351.429 329.5,350C 327.571,346.744 327.071,343.244 328,339.5C 344.687,318.988 361.853,298.988 379.5,279.5 Z"/></g>
<g><path style="opacity:1" fill="#be645f" d="M 382.5,300.5 C 384.371,300.859 385.871,301.859 387,303.5C 395.477,314.278 404.31,324.778 413.5,335C 410.5,335.333 407.5,335.667 404.5,336C 402.333,336.833 400.833,338.333 400,340.5C 399.667,362.167 399.333,383.833 399,405.5C 396.221,426.932 385.055,442.099 365.5,451C 362.226,452.202 358.893,453.202 355.5,454C 330.205,455.442 304.871,455.942 279.5,455.5C 279.5,444.833 279.5,434.167 279.5,423.5C 297.17,423.667 314.836,423.5 332.5,423C 352.459,419.375 363.959,407.541 367,387.5C 367.667,371.833 367.667,356.167 367,340.5C 366.535,339.069 365.701,337.903 364.5,337C 360.916,335.927 357.25,335.26 353.5,335C 363.056,323.376 372.722,311.876 382.5,300.5 Z"/></g>
<g><path style="opacity:1" fill="#799fd5" d="M 48.5,311.5 C 69.1694,311.333 89.836,311.5 110.5,312C 123.36,315.526 131.526,323.693 135,336.5C 135.5,344.159 135.666,351.826 135.5,359.5C 126.161,359.334 116.827,359.5 107.5,360C 102.815,361.35 99.3151,364.183 97,368.5C 95.5269,394.769 95.0269,421.102 95.5,447.5C 71.5,447.5 47.5,447.5 23.5,447.5C 23.3333,410.498 23.5,373.498 24,336.5C 27.6829,323.651 35.8496,315.318 48.5,311.5 Z"/></g>
<g><path style="opacity:1" fill="#fde18e" d="M 111.5,375.5 C 120.833,375.5 130.167,375.5 139.5,375.5C 139.333,394.836 139.5,414.17 140,433.5C 142.405,439.462 146.571,440.962 152.5,438C 157.098,433.559 162.098,429.726 167.5,426.5C 173.282,430.44 178.949,434.607 184.5,439C 188.107,439.797 191.274,438.964 194,436.5C 195.465,416.234 195.965,395.901 195.5,375.5C 204.833,375.5 214.167,375.5 223.5,375.5C 223.5,412.833 223.5,450.167 223.5,487.5C 186.167,487.5 148.833,487.5 111.5,487.5C 111.5,450.167 111.5,412.833 111.5,375.5 Z"/></g>
<g><path style="opacity:1" fill="#e4ca80" d="M 155.5,375.5 C 163.5,375.5 171.5,375.5 179.5,375.5C 179.667,388.504 179.5,401.504 179,414.5C 175.77,411.089 171.937,408.755 167.5,407.5C 163.063,408.755 159.23,411.089 156,414.5C 155.5,401.504 155.333,388.504 155.5,375.5 Z"/></g>
</svg>
