<svg width="512" height="512" viewBox="0 0 512 512" fill="none" xmlns="http://www.w3.org/2000/svg">
<g clip-path="url(#clip0_0_1)">
<path d="M255.832 32.021C379.529 32.117 479.739 132.471 479.643 256.168C479.547 379.865 379.193 480.075 255.496 479.979C131.863 479.883 31.685 379.633 31.685 256C31.869 132.311 132.143 32.117 255.832 32.021ZM255.832 -1.88259e-07C114.443 0.0959998 -0.0960007 114.779 -7.32984e-07 256.168C0.0959993 397.557 114.779 512.096 256.168 512C397.485 511.904 512 397.317 512 256C511.952 114.571 397.261 -0.0480002 255.832 -1.88259e-07Z" fill="#CCCCCC"/>
<path d="M174.617 135.159L135 174.776L337.129 376.905L376.747 337.288L174.617 135.159Z" fill="#C5C5C5"/>
<path d="M337.124 135.103L134.995 337.232L174.612 376.85L376.741 174.72L337.124 135.103Z" fill="#C5C5C5"/>
</g>
<defs>
<clipPath id="clip0_0_1">
<rect width="512" height="512" fill="white"/>
</clipPath>
</defs>
</svg>
