<svg width="1024" height="1024" viewBox="0 0 1024 1024" fill="none" xmlns="http://www.w3.org/2000/svg">
<path d="M364.128 424.3L352.036 424.282H351.996C345.532 424.275 339.228 426.291 333.968 430.048C331.957 424.622 328.795 419.695 324.7 415.606C320.974 411.849 316.54 408.868 311.654 406.836C306.768 404.805 301.527 403.762 296.236 403.77L279.388 403.748H279.332C268.638 403.748 258.17 408.034 250.564 415.518C247.475 409.186 242.778 403.777 236.942 399.83C230.303 395.316 222.46 392.903 214.432 392.904L197.564 392.882C196.278 392.942 194.86 392.952 193.052 393.148C191.928 393.272 190.814 393.44 189.74 393.65L188.732 393.876C185.724 394.546 182.878 395.476 180.286 396.632C178.005 397.646 175.834 398.893 173.81 400.354L174 257.172C174.036 230.546 152.402 208.852 125.776 208.814H125.71C112.838 208.814 100.73 213.82 91.61 222.91C82.48 232.02 77.436 244.138 77.422 257.038L77.204 417.17C66.282 407.196 51.946 402.628 42.328 401.52L33.668 400.526L33.344 626.848C33.318 641.268 38.292 655.356 47.588 666.818L78.468 704.882L101.342 733.914L134.648 777.486L122.788 1019.38L138.324 1020.14L150.468 772.564L113.628 724.376L90.618 695.17L59.43 656.72C52.6051 648.27 48.8885 637.732 48.902 626.87L49.2 418.974C60.056 422.406 77.182 431.306 77.152 453.306L92.708 453.326L92.976 257.06C92.9696 252.759 93.8168 248.5 95.4684 244.53C97.1201 240.559 99.5435 236.955 102.598 233.928C105.629 230.889 109.232 228.479 113.199 226.839C117.165 225.199 121.418 224.361 125.71 224.372H125.756C143.804 224.398 158.468 239.102 158.444 257.154L158.146 484.026L173.504 427.506C175.034 421.888 178.548 414.438 186.624 410.84C188.391 410.065 190.232 409.47 192.118 409.062L190.426 401.468L192.704 408.922C193.388 408.788 194.076 408.686 195.054 408.568C195.874 408.486 196.928 408.38 197.536 408.44L214.414 408.462C219.362 408.47 224.132 409.936 228.212 412.704C231.565 414.969 234.309 418.023 236.205 421.598C238.1 425.172 239.087 429.158 239.08 433.204L239.07 438.26L239.166 438.302C239.172 439.348 239.172 440.628 239.172 442.196H254.728C254.728 436.488 257.082 430.994 261.356 426.726C266.139 421.983 272.598 419.315 279.334 419.302H279.37L296.218 419.324C299.466 419.32 302.682 419.96 305.68 421.207C308.679 422.454 311.401 424.283 313.688 426.588C315.986 428.883 317.807 431.61 319.045 434.613C320.283 437.616 320.913 440.834 320.9 444.082L320.884 455.336V455.338L336.44 455.364C336.456 446.798 343.428 439.838 351.992 439.838H352.018L364.11 439.856C372.684 439.868 379.646 446.854 379.636 455.428L379.352 650.702L333.792 757.206L349.606 1020.23L365.132 1019.3L349.54 759.946L394.28 655.362L394.908 653.904L395.192 455.45C395.21 438.298 381.274 424.324 364.128 424.3V424.3Z" fill="#d1d5db"/>
<path d="M77.152 453.256V453.296L92.708 453.256H77.152Z" fill="#d1d5db"/>
<path d="M77.03 548.7L77.156 444.844L92.712 444.862L92.586 548.718L77.03 548.7ZM157.588 3.76999V191.592H863.022V3.76999H157.588ZM847.466 176.036H173.144V19.328H847.466V176.036Z" fill="#d1d5db"/>
<path d="M969.362 45.942H924.992L979.628 100.088L924.992 154.232H969.362L1024 100.088L969.362 45.942ZM99.008 45.942H54.638L0 100.088L54.638 154.232H99.008L44.372 100.088L99.008 45.942Z" fill="white" fill-opacity="0.2"/>
<path d="M887.232 750.332V629.522H745.296V750.332L721.794 797.342H910.738L887.232 750.332V750.332ZM746.962 781.786L760.852 754.002V645.08H871.674V754.004L885.57 781.788H746.962V781.786Z" fill="#d1d5db"/>
<path d="M818.086 587.864C800.54 587.864 786.264 602.138 786.264 619.682V664.652H801.82V619.682C801.82 610.714 809.118 603.42 818.086 603.42C827.054 603.42 834.346 610.714 834.346 619.682V664.652H849.902V619.682C849.902 602.14 835.626 587.864 818.086 587.864ZM777.928 759.946H793.484V744.39H777.928V759.946ZM840.154 744.39V759.946H855.71V744.39H840.154ZM809.042 759.946H824.598V744.39H809.042V759.946Z" fill="#d1d5db"/>
<path d="M897.846 407.838H713.252C705.12 407.838 697.012 408.938 689.052 411.114C677.39 388.344 654.232 373.996 628.214 373.996C590.458 373.996 559.746 404.714 559.746 442.47C559.746 477.598 586.332 506.632 620.436 510.506L620.442 910.878C620.442 969.212 667.896 1016.67 726.226 1016.67H897.846C956.176 1016.67 1003.64 969.212 1003.64 910.878V513.626C1003.64 455.294 956.178 407.838 897.846 407.838V407.838ZM988.08 910.876C988.08 960.632 947.6 1001.11 897.846 1001.11H726.226C676.474 1001.11 635.998 960.632 635.998 910.876L635.994 495.386H628.216C599.038 495.386 575.304 471.646 575.304 442.468C575.304 413.29 599.038 389.55 628.216 389.55C650.214 389.55 669.572 402.84 677.538 423.406L680.268 430.462L687.398 427.924C695.854 424.916 704.554 423.39 713.254 423.39H897.848C947.6 423.39 988.082 463.868 988.082 513.62V910.876H988.08ZM499.85 321.174C475.482 321.174 455.658 341 455.658 365.37C455.658 389.74 475.482 409.566 499.85 409.566C524.222 409.566 544.048 389.74 544.048 365.37C544.048 341 524.222 321.174 499.85 321.174ZM499.85 394.008C484.06 394.008 471.214 381.162 471.214 365.37C471.214 349.578 484.06 336.732 499.85 336.732C515.644 336.732 528.492 349.578 528.492 365.37C528.492 381.162 515.644 394.008 499.85 394.008V394.008Z" fill="#d1d5db"/>
<path d="M395.412 289.65C380.236 289.65 367.89 301.996 367.89 317.17C367.89 332.346 380.236 344.692 395.412 344.692C410.584 344.692 422.93 332.346 422.93 317.17C422.93 301.996 410.584 289.65 395.412 289.65V289.65ZM395.412 329.136C392.24 329.132 389.198 327.87 386.955 325.627C384.712 323.384 383.45 320.342 383.446 317.17C383.45 313.998 384.712 310.957 386.956 308.714C389.199 306.471 392.24 305.21 395.412 305.206C398.583 305.21 401.624 306.472 403.866 308.715C406.108 310.958 407.369 313.999 407.372 317.17C407.369 320.342 406.109 323.383 403.866 325.626C401.624 327.87 398.584 329.132 395.412 329.136V329.136Z" fill="#d1d5db"/>
</svg>
