<?xml version="1.0" encoding="UTF-8"?>
<svg width="752pt" height="752pt" version="1.1" viewBox="0 0 752 752" xmlns="http://www.w3.org/2000/svg">
 <g>
  <path d="m513.64 238.27c-12.117 4.0703-18.59 17.203-14.613 29.23 1.9414 5.8281 6.1055 10.637 11.656 13.32 5.5508 2.7734 11.84 3.1445 17.668 1.2031s10.637-6.1055 13.32-11.656c2.7734-5.5508 3.1445-11.84 1.2031-17.668-3.9844-11.93-17.117-18.5-29.234-14.43z"/>
  <path d="m572.83 250.48c-1.1094-5.6406-3.0508-10.914-5.7344-15.816-1.2031-2.2188-1.2031-4.8086-0.09375-7.0312l2.7734-5.3633-6.5664-7.2148-5.5508 2.3125c-2.3125 1.0156-4.9961 0.73828-7.1211-0.73828-4.625-3.2383-9.7109-5.5508-15.078-7.0312-2.4961-0.64844-4.4414-2.5898-5.1797-4.9961l-1.7578-5.7344-9.5234-0.46094-2.2188 5.457c-0.92578 2.3125-2.9609 3.9766-5.3633 4.4414-5.6406 1.1094-10.914 3.0508-15.816 5.7344-2.2188 1.2031-4.8086 1.2031-7.0312 0.09375l-5.3633-2.7734-7.2148 6.5664 2.3125 5.5508c1.0156 2.3125 0.73828 4.9961-0.73828 7.1211-3.2383 4.625-5.5508 9.7109-7.0312 15.078-0.64844 2.4961-2.5898 4.4414-4.9961 5.1797l-5.7344 1.7578-0.55469 9.6133 5.457 2.2188c2.3125 0.92578 3.9766 2.9609 4.4414 5.3633 1.1094 5.6406 3.0508 10.914 5.7344 15.816 1.2031 2.2188 1.2031 4.8086 0.09375 7.0312l-2.7734 5.3633 6.5664 7.2148 5.5508-2.3125c2.3125-1.0156 4.9961-0.73828 7.1211 0.73828 4.625 3.2383 9.7109 5.5508 15.078 7.0312 2.4961 0.64844 4.4414 2.5898 5.1797 4.9961l1.7578 5.7344 9.7109 0.46094 2.2188-5.457c0.92578-2.3125 2.9609-3.9766 5.3633-4.4414 5.6406-1.1094 10.914-3.0508 15.816-5.7344 2.2188-1.2031 4.8086-1.2031 7.0312-0.09375l5.3633 2.7734 7.2148-6.5664-2.3125-5.5508c-1.0156-2.3125-0.73828-4.9961 0.73828-7.1211 3.2383-4.625 5.5508-9.7109 7.0312-15.078 0.64844-2.4961 2.5898-4.4414 4.9961-5.1797l5.7344-1.7578 0.46094-9.7109-5.457-2.2188c-2.4062-0.73438-4.0703-2.7695-4.5352-5.2656zm-17.941 26.547c-4.5312 9.0664-12.301 15.816-21.922 19.055-3.9766 1.2969-8.0469 1.9414-12.117 1.9414-5.8281 0-11.562-1.2969-16.836-3.9766-9.0664-4.5312-15.816-12.301-19.055-21.922-6.6602-19.793 4.0703-41.348 23.863-48.004 19.793-6.6602 41.348 4.0703 48.004 23.863 3.332 9.7109 2.5938 19.977-1.9375 29.043z"/>
  <path d="m519.83 464.71c1.1094-9.7109 0.73828-19.426-1.1094-28.859-0.46094-2.4062 0.27734-4.9961 2.0352-6.7539l9.3438-9.1562-9.25-20.441-13.043 1.1094c-2.4961 0.18359-4.9961-0.83203-6.5664-2.8672-5.918-7.6758-12.949-14.246-20.996-19.426-2.1289-1.3867-3.4219-3.793-3.4219-6.2891l0.18359-13.043-20.996-7.7695-8.3242 9.8984c-1.5742 1.9414-4.0703 2.8672-6.4766 2.5898-9.7109-1.1094-19.426-0.73828-28.859 1.1094-2.4062 0.46094-4.9961-0.27734-6.7539-2.0352l-12.766-12.949-3.9766-3.8867-10.453 8.6016c-1.7578 18.5-9.8047 35.887-22.754 49.207 11.562 11.469 21.461 20.996 21.551 21.09 0.83203 0.83203 1.4805 1.7578 1.8516 2.8672 9.5273-18.871 28.582-30.984 50.133-31.266h0.83203c31.172 0 56.699 25.066 57.164 56.332 0.37109 28.305-19.609 51.984-46.711 56.977l0.003906 33.672c2.4062-0.27734 4.8086-0.64844 7.2148-1.1094 2.4062-0.46094 4.9961 0.27734 6.7539 2.0352l9.1562 9.3438 20.441-9.25-1.1094-13.043c-0.18359-2.4961 0.83203-4.9961 2.8672-6.5664 7.6758-5.918 14.246-12.949 19.426-20.996 1.3867-2.1289 3.793-3.4219 6.2891-3.4219l13.043 0.18359 7.7656-20.996-9.8984-8.3242c-1.8477-1.6641-2.8672-4.0703-2.5898-6.5664z"/>
  <path d="m370.91 295.99c7.8633-0.46094 13.969-6.9375 13.969-14.801v-13.227c0-7.3086-5.2734-13.41-12.211-14.613-2.6836 10.359-10.82 18.59-21.184 21.273l0.09375 3.3281c0.09375 4.9023 2.1289 9.4336 5.5508 12.855 3.5156 3.4219 8.0469 5.2734 12.949 5.2734 0.27734-0.089843 0.55469-0.089843 0.83203-0.089843z"/>
  <path d="m272.96 472.57c-2.6836 2.6836-7.0312 2.8672-9.8984 0.37109l-38.109-31.91c-31.91 4.5312-55.59 31.82-55.59 64.562v39.125h42.547v-15.262h14.801v15.262h39.402l12.395-67.707-3.4219-6.3828z"/>
  <path d="m472.29 452.87c-0.37109-23.309-19.609-42.086-42.918-41.715-15.262 0.18359-28.859 8.418-36.258 21.367 25.25 11.379 42.734 34.965 46.527 62.156 19.145-4.4414 32.926-21.555 32.648-41.809z"/>
  <path d="m384.61 318.84c-1.0156-2.5898-3.2383-4.7188-5.918-6.1055v22.293l2.2188-1.8516c4.3438-3.5156 5.8242-9.25 3.6992-14.336z"/>
  <path d="m254.64 397.92c6.3828 5.3633 13.504 9.4336 21.273 12.023 6.6602 2.3125 13.688 3.5156 20.812 3.5156 7.4922 0.09375 14.801-1.1094 21.738-3.4219 7.9531-2.6836 15.262-6.7539 21.738-12.211 14.059-11.84 22.66-29.137 23.68-47.359v-0.37109c0.09375-1.0156 0.09375-2.1289 0.09375-3.2383l-0.003907-36.531c-6.4766-1.2031-12.395-4.2539-17.203-8.9727-6.2891-6.1055-9.8047-14.336-9.9883-23.031l-0.09375-2.6836-104.06 0.003906c-0.73828 0-1.4805 0-2.1289-0.09375v27.84 0.46094 0.46094 41.531c0 1.3867 0 2.5898 0.09375 3.8867 1.1094 18.594 9.8047 36.168 24.047 48.191z"/>
  <path d="m266.12 423.27v-1.2969c-5.457-2.3125-10.73-5.1797-15.539-8.6016-5.918 5.918-11.934 11.934-16.188 16.188l33.02 27.656 3.2383-3.1445c0.46094-0.46094 0.92578-0.92578 1.4805-1.3867 0.09375 0 0.09375-0.09375 0.18359-0.09375 2.0352-1.7578 4.1641-3.2383 6.3828-4.5312-1.2031-0.83203-2.3125-1.8516-3.3281-2.8672-6.0156-5.8242-9.25-13.598-9.25-21.922z"/>
  <path d="m382.11 443.98c-3.793-1.2969-7.6758-2.3125-11.656-2.8672l-38.016 31.91c-1.3867 1.2031-3.0508 1.7578-4.7188 1.7578-1.9414 0-3.8867-0.73828-5.3633-2.3125l-2.2188-2.3125-3.6055 6.8438 11.84 64.656 1.0156 3.1445h38.664v-15.258h14.801v15.262h42.824v-39.312c0-27.562-17.48-52.262-43.566-61.512z"/>
  <path d="m336.41 260.75h7.5859c8.1406 0 14.801-6.6602 14.801-14.801v-14.797c0-7.8633-6.1953-14.336-13.969-14.801l-125.98 34.965c1.3867 3.5156 3.9766 6.3828 7.4922 8.0469 2.0352 0.92578 4.1641 1.4805 6.3828 1.4805h103.69z"/>
  <path d="m308.57 460.27c-6.9375-3.3281-15.168-3.2383-22.016 0.37109l4.0703 7.6758h13.688z"/>
  <path d="m301.36 483.11h-9.0625l-1.9414 11.008z"/>
  <path d="m283.5 531.21 23.68-23.031-1.5703-8.418-19.98 19.98z"/>
  <path d="m323.09 452.12c1.1094 0.92578 2.1289 1.9414 3.1445 2.9609l2.0352 2.1289 32.742-27.473c-4.1641-4.0703-10.266-9.9883-16.742-16.371-4.9961 3.6055-10.359 6.5664-16.094 8.8789v1.1094c0 9.8984-4.625 18.684-11.84 24.328 2.3125 1.2031 4.4414 2.6836 6.4766 4.3477 0.18359 0 0.18359 0 0.27734 0.089844z"/>
  <path d="m296.64 428.26c-5.1797 0-10.266-0.55469-15.355-1.5742 0.64844 3.0508 2.1289 5.8281 4.4414 8.1406 3.0508 3.0508 7.1211 4.7188 11.469 4.7188 7.7695 0 14.336-5.457 15.91-12.855-5.1797 1.0156-10.453 1.5742-15.816 1.5742-0.28125-0.003906-0.46484-0.003906-0.64844-0.003906z"/>
  <path d="m310.42 525.66-19.426 18.961h1.1094l-0.089844-0.18359 20.625-6.1992z"/>
  <path d="m213.95 333.18 1.7578 1.4805v-21.738c-2.4961 1.3867-4.4414 3.4219-5.457 6.0117-2.0352 4.9961-0.55859 10.73 3.6992 14.246z"/>
 </g>
</svg>
