<svg width="1000" height="1000" viewBox="0 0 1000 1000" fill="none" xmlns="http://www.w3.org/2000/svg">
<path d="M742.4 714H538.5H463.2H259.4C240.1 714 224.5 729.1 224.5 748.3C224.5 767.5 240.1 782.6 259.4 782.6H463.3H538.6H742.5C761.8 782.6 777.4 767.5 777.4 748.3C777.4 729.1 761.7 714 742.4 714Z" fill="#0C8CE9"/>
<path d="M742.4 471.3H538.5H463.2H259.4C240.1 471.3 224.5 486.4 224.5 505.6C224.5 524.8 240.1 540 259.4 540H463.3H538.6H742.5C761.8 540 777.4 524.9 777.4 505.6C777.4 486.3 761.7 471.3 742.4 471.3Z" fill="#0C8CE9"/>
<path d="M470.9 228.7H348.1H347.7H259.4C240.1 228.7 224.5 243.8 224.5 263.1C224.5 282.4 240.1 297.4 259.4 297.4H347.7H348.1H470.9C490.2 297.4 505.8 282.3 505.8 263.1C505.8 243.7 490.2 228.7 470.9 228.7Z" fill="#0C8CE9"/>
<path d="M812.3 990H187.7C115.5 990 56.7 931.3 56.7 859V141C56.7 68.8 115.4 10 187.7 10H812.2C884.4 10 943.2 68.8 943.2 141V859C943.2 931.3 884.5 990 812.3 990ZM187.7 79.8C154 79.8 126.5 107.2 126.5 141V859C126.5 892.7 153.9 920.2 187.7 920.2H812.2C845.9 920.2 873.4 892.8 873.4 859V141C873.4 107.2 846 79.8 812.2 79.8H187.7Z" fill="#0C8CE9"/>
<path d="M653 343.8C645 343.8 636.9 341 630.3 335.4L564.5 279.1C549.8 266.6 548.1 244.5 560.7 229.9C573.2 215.2 595.3 213.5 609.9 226L649.8 260.1L763.4 133.2C776.2 118.8 798.3 117.6 812.7 130.5C827.1 143.3 828.3 165.4 815.4 179.8L679 332.2C672.1 339.9 662.6 343.8 653 343.8Z" fill="#0C8CE9"/>
</svg>
